<svg id="Layer_1" data-name="Layer 1" xmlns="http://www.w3.org/2000/svg" viewBox="0 0 858.98 564.66"><defs><style>.cls-1{fill:none;stroke:aqua;stroke-miterlimit:10;stroke-width:2px;}.cls-2,.cls-3{fill:aqua;}.cls-3{font-size:21px;font-family:MyriadPro-Regular, Myriad Pro;}.cls-4{letter-spacing:-0.01em;}.cls-5{letter-spacing:0.02em;}.cls-6{letter-spacing:0.01em;}.cls-7{letter-spacing:-0.01em;}.cls-8{letter-spacing:0em;}.cls-9{letter-spacing:-0.01em;}.cls-10{letter-spacing:0em;}</style></defs><circle class="cls-1" cx="417.83" cy="305.09" r="214.62"/><line class="cls-1" x1="417.83" y1="305.09" x2="233.18" y2="195.35"/><line class="cls-1" x1="417.83" y1="305.09" x2="301.93" y2="486.22"/><line class="cls-1" x1="417.83" y1="305.09" x2="351.29" y2="509.13"/><line class="cls-1" x1="417.83" y1="305.09" x2="621.88" y2="239.42"/><line class="cls-1" x1="417.83" y1="305.09" x2="417.83" y2="90.46"/><line class="cls-1" x1="417.83" y1="305.09" x2="403.29" y2="90.46"/><line class="cls-1" x1="417.83" y1="305.09" x2="339.83" y2="105.45"/><line class="cls-1" x1="417.83" y1="305.09" x2="243.76" y2="179.49"/><polyline class="cls-1" points="496.72 428.93 649.2 428.93 690.63 470.35 854.57 470.35"/><polyline class="cls-1" points="502.89 192.71 659.78 192.71 692.39 160.1 846.64 160.1"/><polyline class="cls-1" points="410.34 111.62 410.34 47.28 572.52 47.28"/><polyline class="cls-1" points="368.92 105.45 368.92 47.28 210.26 47.28"/><polyline class="cls-1" points="286.06 160.1 237.59 160.1 209.82 132.33 5.78 133.65"/><polyline class="cls-1" points="255.21 198 178.53 198 160.46 216.07 5.78 216.07"/><polyline class="cls-1" points="243.75 330.21 163.55 330.21 142.83 350.92 5.78 350.92"/><polyline class="cls-1" points="331.01 483.57 331.01 560.25 178.53 560.25"/><circle class="cls-2" cx="572.52" cy="47.28" r="4.41"/><circle class="cls-2" cx="410.34" cy="47.28" r="4.41"/><circle class="cls-2" cx="368.92" cy="47.28" r="4.41"/><circle class="cls-2" cx="368.92" cy="105.45" r="4.41"/><circle class="cls-2" cx="286.06" cy="160.1" r="4.41"/><circle class="cls-2" cx="209.38" cy="131.89" r="4.41"/><circle class="cls-2" cx="5.78" cy="133.65" r="4.41"/><circle class="cls-2" cx="5.78" cy="216.51" r="4.41"/><circle class="cls-2" cx="160.02" cy="216.51" r="4.41"/><circle class="cls-2" cx="178.53" cy="198" r="4.41"/><circle class="cls-2" cx="255.21" cy="198" r="4.41"/><circle class="cls-2" cx="243.76" cy="330.21" r="4.41"/><circle class="cls-2" cx="331.01" cy="483.57" r="4.41"/><circle class="cls-2" cx="496.72" cy="428.93" r="4.41"/><circle class="cls-2" cx="502.89" cy="192.71" r="4.41"/><circle class="cls-2" cx="660.66" cy="192.71" r="4.41"/><circle class="cls-2" cx="692.39" cy="160.1" r="4.41"/><circle class="cls-2" cx="846.64" cy="160.1" r="4.41"/><circle class="cls-2" cx="649.2" cy="428.93" r="4.41"/><circle class="cls-2" cx="690.63" cy="470.35" r="4.41"/><circle class="cls-2" cx="854.57" cy="470.35" r="4.41"/><circle class="cls-2" cx="331.01" cy="560.26" r="4.41"/><circle class="cls-2" cx="178.53" cy="560.26" r="4.41"/><circle class="cls-2" cx="164.43" cy="330.21" r="4.41"/><circle class="cls-2" cx="142.39" cy="350.48" r="4.41"/><circle class="cls-2" cx="5.78" cy="351.36" r="4.41"/><circle class="cls-2" cx="237.59" cy="160.1" r="4.41"/><circle class="cls-2" cx="210.26" cy="47.28" r="4.41"/><circle class="cls-2" cx="410.34" cy="111.62" r="4.41"/><path class="cls-2" d="M805.86,274.68h-1.71v-9.87c0-.78.05-1.73.14-2.86h0a8.69,8.69,0,0,1-.44,1.43l-5,11.3H798l-5-11.22a9.11,9.11,0,0,1-.44-1.51h0c.06.59.08,1.55.08,2.88v9.85h-1.66V260h2.28l4.51,10.26a12.41,12.41,0,0,1,.68,1.76h.06c.29-.81.53-1.41.71-1.8l4.6-10.22h2.15Z" transform="translate(-530.93 -259.13)"/><path class="cls-2" d="M817,274.68h-1.68V273h0a3.53,3.53,0,0,1-3.23,1.88,3.43,3.43,0,0,1-2.46-.83,2.88,2.88,0,0,1-.89-2.2q0-2.94,3.47-3.43l3.15-.44c0-1.78-.72-2.67-2.17-2.67a5.17,5.17,0,0,0-3.42,1.29v-1.72a6.47,6.47,0,0,1,3.57-1q3.7,0,3.7,3.92Zm-1.68-5.31-2.53.34a4.26,4.26,0,0,0-1.77.58,1.7,1.7,0,0,0-.59,1.48A1.57,1.57,0,0,0,811,273a2.08,2.08,0,0,0,1.46.49,2.67,2.67,0,0,0,2.06-.88,3.09,3.09,0,0,0,.82-2.22Z" transform="translate(-530.93 -259.13)"/><path class="cls-2" d="M828.91,274.68h-2.36l-4.64-5.05h0v5.05h-1.68V259.13h1.68V269h0l4.41-4.81h2.21l-4.87,5.06Z" transform="translate(-530.93 -259.13)"/><path class="cls-2" d="M838.65,269.85h-7.42a3.87,3.87,0,0,0,.95,2.7,3.22,3.22,0,0,0,2.48,1,5.16,5.16,0,0,0,3.26-1.17v1.58a6.1,6.1,0,0,1-3.66,1,4.42,4.42,0,0,1-3.5-1.43,5.82,5.82,0,0,1-1.27-4,5.73,5.73,0,0,1,1.39-4,4.48,4.48,0,0,1,3.45-1.54,4,4,0,0,1,3.19,1.33,5.59,5.59,0,0,1,1.13,3.71Zm-1.73-1.43a3.38,3.38,0,0,0-.7-2.26,2.39,2.39,0,0,0-1.92-.81,2.69,2.69,0,0,0-2,.85,3.84,3.84,0,0,0-1,2.22Z" transform="translate(-530.93 -259.13)"/><path class="cls-2" d="M846.06,274.58a3.37,3.37,0,0,1-1.57.32c-1.84,0-2.76-1-2.76-3.07v-6.22h-1.8v-1.43h1.8v-2.57l1.69-.54v3.11h2.64v1.43h-2.64v5.92a2.47,2.47,0,0,0,.35,1.51,1.44,1.44,0,0,0,1.19.45,1.78,1.78,0,0,0,1.1-.35Z" transform="translate(-530.93 -259.13)"/><path class="cls-2" d="M849.17,261.51a1,1,0,0,1-.77-.31,1,1,0,0,1-.32-.78,1,1,0,0,1,.32-.78,1,1,0,0,1,.77-.31,1.07,1.07,0,0,1,.78.31,1,1,0,0,1,.32.78,1,1,0,0,1-.32.77A1,1,0,0,1,849.17,261.51Zm.82,13.17H848.3v-10.5H850Z" transform="translate(-530.93 -259.13)"/><path class="cls-2" d="M862.11,274.68h-1.69v-6c0-2.23-.81-3.34-2.44-3.34a2.63,2.63,0,0,0-2.08.94,3.56,3.56,0,0,0-.83,2.4v6h-1.68v-10.5h1.68v1.74h0a3.79,3.79,0,0,1,3.45-2,3.21,3.21,0,0,1,2.63,1.11,5,5,0,0,1,.92,3.22Z" transform="translate(-530.93 -259.13)"/><path class="cls-2" d="M874.24,273.84q0,5.78-5.54,5.78a7.44,7.44,0,0,1-3.4-.74V277.2a6.93,6.93,0,0,0,3.38,1c2.58,0,3.88-1.37,3.88-4.12v-1.15h0a4.25,4.25,0,0,1-6.76.61,5.6,5.6,0,0,1-1.19-3.75,6.58,6.58,0,0,1,1.28-4.26,4.33,4.33,0,0,1,3.53-1.58,3.42,3.42,0,0,1,3.14,1.7h0v-1.45h1.68Zm-1.68-3.91v-1.55a3,3,0,0,0-.85-2.14,2.77,2.77,0,0,0-2.11-.89,2.91,2.91,0,0,0-2.44,1.13,5,5,0,0,0-.88,3.17,4.32,4.32,0,0,0,.85,2.81,2.73,2.73,0,0,0,2.24,1.05,2.93,2.93,0,0,0,2.3-1A3.74,3.74,0,0,0,872.56,269.93Z" transform="translate(-530.93 -259.13)"/><path class="cls-2" d="M819.87,299.52v-1.78a5.69,5.69,0,0,0,3.07,1,3.54,3.54,0,0,0,2.51-.88,3.06,3.06,0,0,0,.95-2.34,2.78,2.78,0,0,0-1-2.26,4.26,4.26,0,0,0-2.79-.81c-.41,0-1.18,0-2.31.13v-7.38h7.12v1.52h-5.53V291c.45,0,.87,0,1.25,0a5.19,5.19,0,0,1,3.65,1.18,4.2,4.2,0,0,1,1.3,3.25,4.5,4.5,0,0,1-1.39,3.43,5.35,5.35,0,0,1-3.81,1.3A6.1,6.1,0,0,1,819.87,299.52Z" transform="translate(-530.93 -259.13)"/><path class="cls-2" d="M833.65,292.55a3.12,3.12,0,0,1-2.42-1,3.85,3.85,0,0,1-.9-2.67,4.15,4.15,0,0,1,.95-2.88,3.32,3.32,0,0,1,2.58-1.05,3.08,3.08,0,0,1,2.43,1,4,4,0,0,1,.87,2.74,4,4,0,0,1-1,2.83A3.3,3.3,0,0,1,833.65,292.55Zm.15-6.47a1.84,1.84,0,0,0-1.54.72,3.11,3.11,0,0,0-.57,2,3,3,0,0,0,.56,1.94,1.82,1.82,0,0,0,1.5.69,1.78,1.78,0,0,0,1.51-.72,3.25,3.25,0,0,0,.55-2,3.06,3.06,0,0,0-.54-1.93A1.77,1.77,0,0,0,833.8,286.08Zm9.7-.91L834.06,300H832.6L842,285.17Zm-1.09,14.93a3.09,3.09,0,0,1-2.42-1,3.85,3.85,0,0,1-.9-2.67,4.12,4.12,0,0,1,1-2.88,3.28,3.28,0,0,1,2.56-1.06,3.06,3.06,0,0,1,2.43,1,4,4,0,0,1,.88,2.76,4,4,0,0,1-1,2.81A3.27,3.27,0,0,1,842.41,300.1Zm.14-6.46a1.84,1.84,0,0,0-1.54.72,3.18,3.18,0,0,0-.56,2,3,3,0,0,0,.55,1.91,1.85,1.85,0,0,0,1.51.7,1.8,1.8,0,0,0,1.51-.73,3.23,3.23,0,0,0,.54-2,3,3,0,0,0-.54-1.93A1.77,1.77,0,0,0,842.55,293.64Z" transform="translate(-530.93 -259.13)"/><path class="cls-2" d="M1003,274.68h-1.9l-1.56-4.12h-6.24l-1.46,4.12h-1.92L995.55,260h1.78ZM999,269l-2.3-6.27a5.73,5.73,0,0,1-.23-1h0a5.6,5.6,0,0,1-.24,1L993.87,269Z" transform="translate(-530.93 -259.13)"/><path class="cls-2" d="M1013.89,274.68h-1.68v-1.79h0a3.87,3.87,0,0,1-3.61,2,3.91,3.91,0,0,1-3.16-1.41,5.78,5.78,0,0,1-1.19-3.84,6.28,6.28,0,0,1,1.32-4.17,4.34,4.34,0,0,1,3.49-1.57,3.38,3.38,0,0,1,3.15,1.7h0v-6.5h1.68Zm-1.68-4.75v-1.55a3,3,0,0,0-.84-2.15,2.81,2.81,0,0,0-2.13-.88,2.9,2.9,0,0,0-2.42,1.12,5,5,0,0,0-.88,3.12,4.48,4.48,0,0,0,.84,2.87,2.77,2.77,0,0,0,2.27,1.05,2.85,2.85,0,0,0,2.28-1A3.74,3.74,0,0,0,1012.21,269.93Z" transform="translate(-530.93 -259.13)"/><path class="cls-2" d="M1025.55,264.18l-4.18,10.5h-1.65l-4-10.5h1.84l2.67,7.63a6.93,6.93,0,0,1,.37,1.46h0a7.05,7.05,0,0,1,.33-1.42l2.79-7.67Z" transform="translate(-530.93 -259.13)"/><path class="cls-2" d="M1028.22,261.51a1,1,0,0,1-.77-.31,1,1,0,0,1-.32-.78,1.06,1.06,0,0,1,.32-.78,1.12,1.12,0,0,1,1.55,0,1,1,0,0,1,.33.78,1,1,0,0,1-.33.77A1,1,0,0,1,1028.22,261.51Zm.82,13.17h-1.68v-10.5H1029Z" transform="translate(-530.93 -259.13)"/><path class="cls-2" d="M1031.81,274.3v-1.81a4.94,4.94,0,0,0,3,1c1.48,0,2.22-.49,2.22-1.48a1.32,1.32,0,0,0-.19-.71,2,2,0,0,0-.52-.52,3.59,3.59,0,0,0-.76-.4l-.93-.38a10.33,10.33,0,0,1-1.23-.56,3.74,3.74,0,0,1-.88-.63,2.37,2.37,0,0,1-.53-.81,2.82,2.82,0,0,1-.18-1,2.46,2.46,0,0,1,.34-1.31,2.82,2.82,0,0,1,.9-1,4,4,0,0,1,1.28-.58,5.77,5.77,0,0,1,1.5-.2,6.1,6.1,0,0,1,2.44.47v1.71a4.74,4.74,0,0,0-2.67-.76,3.2,3.2,0,0,0-.85.1,2.31,2.31,0,0,0-.65.31,1.41,1.41,0,0,0-.42.46,1.21,1.21,0,0,0-.15.6,1.41,1.41,0,0,0,.15.69,1.43,1.43,0,0,0,.43.49,3.11,3.11,0,0,0,.7.39l.93.38a12.79,12.79,0,0,1,1.26.55,4.43,4.43,0,0,1,.94.64,2.38,2.38,0,0,1,.6.81,2.91,2.91,0,0,1-.13,2.45,3.12,3.12,0,0,1-.92,1,4.24,4.24,0,0,1-1.32.56,6.75,6.75,0,0,1-1.57.18A6,6,0,0,1,1031.81,274.3Z" transform="translate(-530.93 -259.13)"/><path class="cls-2" d="M1045.74,274.92a4.85,4.85,0,0,1-3.71-1.47,5.43,5.43,0,0,1-1.39-3.9,5.69,5.69,0,0,1,1.44-4.13,5.22,5.22,0,0,1,3.91-1.49,4.67,4.67,0,0,1,3.66,1.45,5.72,5.72,0,0,1,1.32,4,5.63,5.63,0,0,1-1.42,4A5,5,0,0,1,1045.74,274.92Zm.13-9.57a3.2,3.2,0,0,0-2.57,1.1,4.51,4.51,0,0,0-.94,3,4.31,4.31,0,0,0,1,2.94,3.25,3.25,0,0,0,2.56,1.08,3,3,0,0,0,2.5-1.06,4.53,4.53,0,0,0,.88-3,4.65,4.65,0,0,0-.88-3A3,3,0,0,0,1045.87,265.35Z" transform="translate(-530.93 -259.13)"/><path class="cls-2" d="M1059.13,265.88a2,2,0,0,0-1.27-.34,2.14,2.14,0,0,0-1.8,1,4.7,4.7,0,0,0-.72,2.77v5.35h-1.68v-10.5h1.68v2.16h0a3.72,3.72,0,0,1,1.1-1.73,2.51,2.51,0,0,1,1.65-.62,2.59,2.59,0,0,1,1,.15Z" transform="translate(-530.93 -259.13)"/><path class="cls-2" d="M1060.47,274.3v-1.81a4.94,4.94,0,0,0,3,1c1.48,0,2.22-.49,2.22-1.48a1.32,1.32,0,0,0-.19-.71,2,2,0,0,0-.52-.52,3.59,3.59,0,0,0-.76-.4l-.93-.38a10.33,10.33,0,0,1-1.23-.56,3.55,3.55,0,0,1-.88-.63,2.37,2.37,0,0,1-.53-.81,2.82,2.82,0,0,1-.18-1,2.46,2.46,0,0,1,.34-1.31,2.82,2.82,0,0,1,.9-1,4,4,0,0,1,1.28-.58,5.77,5.77,0,0,1,1.5-.2,6.1,6.1,0,0,1,2.44.47v1.71a4.74,4.74,0,0,0-2.67-.76,3.2,3.2,0,0,0-.85.1,2.31,2.31,0,0,0-.65.31,1.41,1.41,0,0,0-.42.46,1.21,1.21,0,0,0-.15.6,1.41,1.41,0,0,0,.15.69,1.43,1.43,0,0,0,.43.49,2.9,2.9,0,0,0,.7.39l.93.38a11.61,11.61,0,0,1,1.25.55,4.26,4.26,0,0,1,.95.64,2.38,2.38,0,0,1,.6.81,2.63,2.63,0,0,1,.21,1.1,2.56,2.56,0,0,1-.35,1.35,3,3,0,0,1-.91,1,4.3,4.3,0,0,1-1.33.56,6.66,6.66,0,0,1-1.56.18A6,6,0,0,1,1060.47,274.3Z" transform="translate(-530.93 -259.13)"/><path class="cls-2" d="M1022.17,299.88h-1.68V287.17a4,4,0,0,1-.57.45c-.25.17-.53.33-.84.5s-.64.31-1,.46a8.57,8.57,0,0,1-1,.34v-1.71a10.45,10.45,0,0,0,1.18-.41,12.41,12.41,0,0,0,1.22-.59c.4-.21.77-.44,1.13-.67s.66-.47.92-.69h.64Z" transform="translate(-530.93 -259.13)"/><path class="cls-2" d="M1030.21,292.55a3.12,3.12,0,0,1-2.42-1,3.86,3.86,0,0,1-.91-2.67,4.11,4.11,0,0,1,1-2.88,3.29,3.29,0,0,1,2.57-1.05,3.09,3.09,0,0,1,2.44,1,4,4,0,0,1,.86,2.74,4.06,4.06,0,0,1-1,2.83A3.32,3.32,0,0,1,1030.21,292.55Zm.14-6.47a1.86,1.86,0,0,0-1.54.72,3.17,3.17,0,0,0-.56,2,3,3,0,0,0,.55,1.94,1.83,1.83,0,0,0,1.51.69,1.8,1.8,0,0,0,1.51-.72,3.25,3.25,0,0,0,.54-2,3.06,3.06,0,0,0-.54-1.93A1.77,1.77,0,0,0,1030.35,286.08Zm9.7-.91L1030.62,300h-1.47l9.42-14.81ZM1039,300.1a3.1,3.1,0,0,1-2.42-1,3.85,3.85,0,0,1-.9-2.67,4.08,4.08,0,0,1,1-2.88,3.27,3.27,0,0,1,2.56-1.06,3.06,3.06,0,0,1,2.43,1,4.68,4.68,0,0,1-.1,5.57A3.26,3.26,0,0,1,1039,300.1Zm.15-6.46a1.86,1.86,0,0,0-1.55.72,3.18,3.18,0,0,0-.55,2,3,3,0,0,0,.55,1.91,1.84,1.84,0,0,0,1.51.7,1.78,1.78,0,0,0,1.5-.73,3.17,3.17,0,0,0,.55-2,3,3,0,0,0-.54-1.93A1.79,1.79,0,0,0,1039.11,293.64Z" transform="translate(-530.93 -259.13)"/><path class="cls-2" d="M1269.76,390.41a8.68,8.68,0,0,1-4.06.86,6.55,6.55,0,0,1-5-2,7.48,7.48,0,0,1-1.88-5.3,7.83,7.83,0,0,1,2.12-5.7,7.21,7.21,0,0,1,5.38-2.18,8.7,8.7,0,0,1,3.47.61v1.83a7.12,7.12,0,0,0-3.49-.88,5.33,5.33,0,0,0-4.1,1.7,6.35,6.35,0,0,0-1.58,4.52,6.08,6.08,0,0,0,1.47,4.28,5,5,0,0,0,3.86,1.59,7.31,7.31,0,0,0,3.84-1Z" transform="translate(-530.93 -259.13)"/><path class="cls-2" d="M1273.39,386.28a3.24,3.24,0,0,0,3.48,3.53,6.54,6.54,0,0,0,2.82-.53l.33,1.32a8.13,8.13,0,0,1-3.4.66c-3.13,0-5-2.08-5-5.15s1.81-5.46,4.77-5.46c3.34,0,4.2,2.9,4.2,4.77a4.7,4.7,0,0,1-.06.86Zm5.41-1.32c0-1.16-.48-3-2.56-3-1.89,0-2.68,1.71-2.83,3Z" transform="translate(-530.93 -259.13)"/><path class="cls-2" d="M1283.68,380.86l1.45,2.19c.4.56.71,1.07,1,1.63h0c.33-.58.67-1.11,1-1.65l1.4-2.17h2l-3.46,4.92,3.54,5.24h-2.08l-1.51-2.28c-.4-.59-.73-1.16-1.09-1.77h0c-.34.61-.67,1.16-1.07,1.77l-1.47,2.28h-2l3.61-5.18-3.44-5Z" transform="translate(-530.93 -259.13)"/><path class="cls-2" d="M1297,376.12h1.85V391H1297Z" transform="translate(-530.93 -259.13)"/><path class="cls-2" d="M1304,378a1.1,1.1,0,0,1-1.17,1.13,1.08,1.08,0,0,1-1.11-1.13,1.13,1.13,0,0,1,1.15-1.16A1.11,1.11,0,0,1,1304,378Zm-2,13V380.86h1.85V391Z" transform="translate(-530.93 -259.13)"/><path class="cls-2" d="M1306.61,389.16a5.29,5.29,0,0,0,2.46.71c1.32,0,2-.65,2-1.51s-.53-1.35-1.87-1.85c-1.85-.67-2.71-1.66-2.71-2.88,0-1.63,1.35-3,3.51-3a4.8,4.8,0,0,1,2.48.63l-.44,1.35a3.89,3.89,0,0,0-2.08-.61c-1.1,0-1.68.63-1.68,1.38s.58,1.22,1.91,1.75c1.74.65,2.66,1.53,2.66,3,0,1.81-1.4,3.07-3.78,3.07a5.77,5.77,0,0,1-2.85-.72Z" transform="translate(-530.93 -259.13)"/><path class="cls-2" d="M1317.4,378.43v2.43h2.65v1.41h-2.65v5.48c0,1.26.36,2,1.39,2a3.61,3.61,0,0,0,1.07-.12l.08,1.4a4.83,4.83,0,0,1-1.63.26,2.64,2.64,0,0,1-2-.78,4,4,0,0,1-.71-2.67v-5.54H1314v-1.41h1.58V379Z" transform="translate(-530.93 -259.13)"/><path class="cls-2" d="M1324.19,378a1.1,1.1,0,0,1-1.18,1.13,1.08,1.08,0,0,1-1.11-1.13,1.15,1.15,0,1,1,2.29,0Zm-2.06,13V380.86H1324V391Z" transform="translate(-530.93 -259.13)"/><path class="cls-2" d="M1327,383.61c0-1.07,0-1.91-.08-2.75h1.64l.1,1.68h0a3.78,3.78,0,0,1,3.36-1.89c1.41,0,3.59.84,3.59,4.33v6h-1.85v-5.85c0-1.64-.6-3-2.35-3a2.67,2.67,0,0,0-2.47,1.89,2.55,2.55,0,0,0-.13.86V391H1327Z" transform="translate(-530.93 -259.13)"/><path class="cls-2" d="M1347.39,389.53c0,2.35-.48,3.76-1.45,4.67a5.61,5.61,0,0,1-3.72,1.21,6.54,6.54,0,0,1-3.38-.84l.47-1.43a5.44,5.44,0,0,0,3,.82c1.89,0,3.27-1,3.27-3.57v-1.11h0a3.6,3.6,0,0,1-3.23,1.7c-2.52,0-4.33-2.14-4.33-5,0-3.45,2.25-5.38,4.6-5.38a3.39,3.39,0,0,1,3.17,1.74h0l.06-1.53h1.64c-.06.72-.08,1.56-.08,2.77Zm-1.85-4.66a2.6,2.6,0,0,0-.1-.82,2.64,2.64,0,0,0-2.59-2c-1.76,0-3,1.49-3,3.84,0,2,1,3.66,3,3.66a2.66,2.66,0,0,0,2.56-1.89,3.13,3.13,0,0,0,.15-1Z" transform="translate(-530.93 -259.13)"/><path class="cls-2" d="M1350.18,389.16a5.33,5.33,0,0,0,2.46.71c1.32,0,1.95-.65,1.95-1.51s-.52-1.35-1.87-1.85c-1.84-.67-2.7-1.66-2.7-2.88,0-1.63,1.34-3,3.5-3a4.8,4.8,0,0,1,2.48.63l-.44,1.35a3.89,3.89,0,0,0-2.08-.61c-1.09,0-1.68.63-1.68,1.38s.59,1.22,1.91,1.75c1.74.65,2.67,1.53,2.67,3,0,1.81-1.41,3.07-3.78,3.07a5.84,5.84,0,0,1-2.86-.72Z" transform="translate(-530.93 -259.13)"/><path class="cls-2" d="M1289.38,416.22v-1.13l1.45-1.41c3.48-3.31,5.08-5.08,5.08-7.14a2.42,2.42,0,0,0-2.69-2.66,4.68,4.68,0,0,0-2.9,1.15l-.59-1.3a6.1,6.1,0,0,1,3.85-1.38,3.83,3.83,0,0,1,4.17,4c0,2.52-1.82,4.56-4.7,7.33l-1.07,1v0h6.11v1.53Z" transform="translate(-530.93 -259.13)"/><path class="cls-2" d="M1309.24,409.25c0,4.64-1.74,7.21-4.74,7.21-2.67,0-4.5-2.5-4.54-7s2-7.09,4.77-7.09S1309.24,404.91,1309.24,409.25Zm-7.41.21c0,3.55,1.09,5.57,2.77,5.57,1.87,0,2.77-2.21,2.77-5.69s-.84-5.57-2.77-5.57C1303,403.77,1301.83,405.75,1301.83,409.46Z" transform="translate(-530.93 -259.13)"/><path class="cls-2" d="M1317.05,406.4c0,2.88-1.49,4.3-3.25,4.3s-3.17-1.36-3.19-4.09,1.47-4.26,3.31-4.26S1317.05,403.82,1317.05,406.4Zm-5,.12c0,1.75.63,3.07,1.78,3.07s1.76-1.3,1.76-3.09-.48-3-1.78-3C1312.69,403.46,1312.06,404.82,1312.06,406.52Zm1.59,10,8-14.15h1.18l-8,14.15Zm12.31-4.41c0,2.87-1.5,4.3-3.26,4.3s-3.17-1.36-3.19-4.11,1.47-4.27,3.32-4.27S1326,409.46,1326,412.07Zm-5,.12c0,1.75.63,3.07,1.78,3.07s1.77-1.3,1.77-3.11c0-1.66-.49-3-1.79-3C1321.59,409.11,1321,410.47,1321,412.19Z" transform="translate(-530.93 -259.13)"/><path class="cls-2" d="M1247.36,692.2v5.55h-1.73v-14.7h4a5.32,5.32,0,0,1,3.66,1.15,4.1,4.1,0,0,1,1.3,3.24,4.46,4.46,0,0,1-1.44,3.42,5.51,5.51,0,0,1-3.9,1.34Zm0-7.59v6h1.8a4,4,0,0,0,2.72-.82,2.87,2.87,0,0,0,.94-2.3q0-2.91-3.44-2.91Z" transform="translate(-530.93 -259.13)"/><path class="cls-2" d="M1265.66,697.75H1264v-1.66h0a3.46,3.46,0,0,1-3.24,1.91c-2.5,0-3.76-1.49-3.76-4.47v-6.28h1.68v6c0,2.22.84,3.32,2.54,3.32a2.57,2.57,0,0,0,2-.9,3.49,3.49,0,0,0,.8-2.38v-6h1.68Z" transform="translate(-530.93 -259.13)"/><path class="cls-2" d="M1270.78,696.24h0v1.51h-1.69V682.21h1.69v6.89h0a4,4,0,0,1,3.63-2.09,3.85,3.85,0,0,1,3.16,1.41,5.84,5.84,0,0,1,1.14,3.78,6.5,6.5,0,0,1-1.28,4.22,4.27,4.27,0,0,1-3.51,1.58A3.46,3.46,0,0,1,1270.78,696.24Zm0-4.24v1.47a3.14,3.14,0,0,0,.84,2.21,2.83,2.83,0,0,0,2.15.9,2.79,2.79,0,0,0,2.39-1.16,5.36,5.36,0,0,0,.87-3.25,4.23,4.23,0,0,0-.81-2.75,2.66,2.66,0,0,0-2.19-1,3,3,0,0,0-2.36,1A3.73,3.73,0,0,0,1270.74,692Z" transform="translate(-530.93 -259.13)"/><path class="cls-2" d="M1283.08,697.75h-1.68V682.21h1.68Z" transform="translate(-530.93 -259.13)"/><path class="cls-2" d="M1287.35,684.59a1,1,0,0,1-.77-.31,1,1,0,0,1-.32-.78,1.09,1.09,0,0,1,1.09-1.1,1.08,1.08,0,0,1,.78.32,1.1,1.1,0,0,1,0,1.55A1.08,1.08,0,0,1,1287.35,684.59Zm.82,13.16h-1.68v-10.5h1.68Z" transform="translate(-530.93 -259.13)"/><path class="cls-2" d="M1298.73,697.27a5.44,5.44,0,0,1-2.87.73,4.78,4.78,0,0,1-3.63-1.46,5.31,5.31,0,0,1-1.38-3.79,5.83,5.83,0,0,1,1.49-4.17,5.19,5.19,0,0,1,4-1.57,5.57,5.57,0,0,1,2.44.51v1.72a4.32,4.32,0,0,0-2.5-.82,3.36,3.36,0,0,0-2.64,1.16,4.37,4.37,0,0,0-1,3,4.19,4.19,0,0,0,1,2.91,3.36,3.36,0,0,0,2.6,1.06,4.22,4.22,0,0,0,2.59-.91Z" transform="translate(-530.93 -259.13)"/><path class="cls-2" d="M1308.75,696.24h0v6.34H1307V687.25h1.69v1.85h0a4,4,0,0,1,3.63-2.09,3.82,3.82,0,0,1,3.16,1.41,5.84,5.84,0,0,1,1.14,3.78,6.56,6.56,0,0,1-1.28,4.22,4.27,4.27,0,0,1-3.51,1.58A3.5,3.5,0,0,1,1308.75,696.24Zm0-4.24v1.47a3.14,3.14,0,0,0,.84,2.21,2.83,2.83,0,0,0,2.15.9,2.79,2.79,0,0,0,2.39-1.16,5.36,5.36,0,0,0,.87-3.25,4.23,4.23,0,0,0-.81-2.75,2.66,2.66,0,0,0-2.19-1,3,3,0,0,0-2.36,1A3.73,3.73,0,0,0,1308.71,692Z" transform="translate(-530.93 -259.13)"/><path class="cls-2" d="M1324.84,689a2,2,0,0,0-1.27-.34,2.18,2.18,0,0,0-1.8,1,4.72,4.72,0,0,0-.72,2.77v5.35h-1.68v-10.5h1.68v2.17h0a3.67,3.67,0,0,1,1.1-1.73,2.51,2.51,0,0,1,1.65-.62,2.84,2.84,0,0,1,1,.14Z" transform="translate(-530.93 -259.13)"/><path class="cls-2" d="M1334.83,692.92h-7.41a3.94,3.94,0,0,0,.94,2.71,3.23,3.23,0,0,0,2.48,1,5.13,5.13,0,0,0,3.26-1.16V697a6.08,6.08,0,0,1-3.66,1,4.43,4.43,0,0,1-3.49-1.43,5.85,5.85,0,0,1-1.27-4,5.72,5.72,0,0,1,1.39-4,4.43,4.43,0,0,1,3.45-1.54,4,4,0,0,1,3.19,1.33,5.56,5.56,0,0,1,1.12,3.7Zm-1.72-1.42a3.46,3.46,0,0,0-.7-2.27,2.41,2.41,0,0,0-1.93-.81,2.76,2.76,0,0,0-2,.85,3.89,3.89,0,0,0-1,2.23Z" transform="translate(-530.93 -259.13)"/><path class="cls-2" d="M1336.74,697.38v-1.81a5,5,0,0,0,3,1q2.22,0,2.22-1.47a1.23,1.23,0,0,0-.19-.71,1.94,1.94,0,0,0-.51-.52,4.17,4.17,0,0,0-.76-.41l-.94-.37a13.32,13.32,0,0,1-1.23-.56,3.77,3.77,0,0,1-.88-.64,2.38,2.38,0,0,1-.53-.8,2.83,2.83,0,0,1-.18-1.06,2.45,2.45,0,0,1,.34-1.3,2.94,2.94,0,0,1,.9-1,4.46,4.46,0,0,1,1.29-.58,5.69,5.69,0,0,1,1.49-.19,6.1,6.1,0,0,1,2.44.47v1.7a4.8,4.8,0,0,0-2.67-.76,3.24,3.24,0,0,0-.85.11,2.05,2.05,0,0,0-.65.3,1.44,1.44,0,0,0-.42.47,1.21,1.21,0,0,0-.15.6,1.47,1.47,0,0,0,.15.69,1.56,1.56,0,0,0,.44.49,3.69,3.69,0,0,0,.69.39l.94.38c.46.18.88.36,1.25.55a4.17,4.17,0,0,1,.94.63,2.52,2.52,0,0,1,.6.82,2.91,2.91,0,0,1-.13,2.45,3,3,0,0,1-.92,1,4.39,4.39,0,0,1-1.32.57,6.69,6.69,0,0,1-1.57.18A6,6,0,0,1,1336.74,697.38Z" transform="translate(-530.93 -259.13)"/><path class="cls-2" d="M1353.8,697.75h-1.68v-1.64h0a3.84,3.84,0,0,1-5.69,1.06,2.88,2.88,0,0,1-.88-2.21q0-2.94,3.46-3.42l3.15-.44c0-1.79-.72-2.68-2.16-2.68a5.18,5.18,0,0,0-3.43,1.29V688a6.55,6.55,0,0,1,3.57-1q3.7,0,3.7,3.91Zm-1.68-5.31-2.53.35a4.12,4.12,0,0,0-1.77.58,1.69,1.69,0,0,0-.59,1.47,1.61,1.61,0,0,0,.55,1.26,2.12,2.12,0,0,0,1.46.48,2.73,2.73,0,0,0,2.07-.87,3.16,3.16,0,0,0,.81-2.22Z" transform="translate(-530.93 -259.13)"/><path class="cls-2" d="M1358.65,697.75H1357V682.21h1.68Z" transform="translate(-530.93 -259.13)"/><path class="cls-2" d="M1370.5,692.92h-7.42a3.9,3.9,0,0,0,1,2.71,3.22,3.22,0,0,0,2.48,1,5.15,5.15,0,0,0,3.26-1.16V697a6.12,6.12,0,0,1-3.66,1,4.45,4.45,0,0,1-3.5-1.43,5.85,5.85,0,0,1-1.27-4,5.72,5.72,0,0,1,1.39-4,4.43,4.43,0,0,1,3.45-1.54,4,4,0,0,1,3.19,1.33,5.56,5.56,0,0,1,1.13,3.7Zm-1.73-1.42a3.4,3.4,0,0,0-.7-2.27,2.39,2.39,0,0,0-1.92-.81,2.73,2.73,0,0,0-2,.85,3.84,3.84,0,0,0-1,2.23Z" transform="translate(-530.93 -259.13)"/><path class="cls-2" d="M1289,722.41V720.6a5.38,5.38,0,0,0,3.41,1.19,3.71,3.71,0,0,0,2.45-.77,2.6,2.6,0,0,0,.92-2.08q0-2.88-4.09-2.88h-1.22v-1.42h1.16c2.42,0,3.64-.9,3.64-2.71s-.93-2.5-2.78-2.5a4.67,4.67,0,0,0-2.92,1.06v-1.65a6.4,6.4,0,0,1,3.34-.84,4.31,4.31,0,0,1,3,1,3.21,3.21,0,0,1,1.11,2.52,3.58,3.58,0,0,1-3,3.73v0a3.94,3.94,0,0,1,2.52,1.12,3.26,3.26,0,0,1,.94,2.39A4,4,0,0,1,1296,722a5.61,5.61,0,0,1-3.75,1.21A6.12,6.12,0,0,1,1289,722.41Z" transform="translate(-530.93 -259.13)"/><path class="cls-2" d="M1300.61,722.59v-1.78a5.62,5.62,0,0,0,3.07,1,3.57,3.57,0,0,0,2.51-.89,3,3,0,0,0,1-2.33,2.77,2.77,0,0,0-1-2.26,4.26,4.26,0,0,0-2.79-.81q-.62,0-2.31.12v-7.37h7.12v1.52h-5.53v4.3c.45,0,.87,0,1.25,0a5.21,5.21,0,0,1,3.65,1.19,4.18,4.18,0,0,1,1.29,3.24,4.49,4.49,0,0,1-1.39,3.44,5.31,5.31,0,0,1-3.8,1.3A6,6,0,0,1,1300.61,722.59Z" transform="translate(-530.93 -259.13)"/><path class="cls-2" d="M1314.39,715.62a3.09,3.09,0,0,1-2.42-1,3.82,3.82,0,0,1-.9-2.67,4.14,4.14,0,0,1,1-2.87,3.33,3.33,0,0,1,2.58-1.06,3.09,3.09,0,0,1,2.43,1,4,4,0,0,1,.87,2.74,4,4,0,0,1-1,2.82A3.27,3.27,0,0,1,1314.39,715.62Zm.15-6.47a1.83,1.83,0,0,0-1.54.73,3.11,3.11,0,0,0-.57,2,3,3,0,0,0,.56,1.93,1.82,1.82,0,0,0,1.5.69,1.77,1.77,0,0,0,1.51-.71,3.25,3.25,0,0,0,.54-2,3.11,3.11,0,0,0-.53-1.94A1.77,1.77,0,0,0,1314.54,709.15Zm9.7-.9-9.44,14.81h-1.47l9.43-14.81Zm-1.09,14.93a3.1,3.1,0,0,1-2.42-1,3.83,3.83,0,0,1-.9-2.66,4.15,4.15,0,0,1,1-2.89,3.32,3.32,0,0,1,2.56-1.06,3.06,3.06,0,0,1,2.43,1,4,4,0,0,1,.88,2.75,4.06,4.06,0,0,1-1,2.82A3.28,3.28,0,0,1,1323.15,723.18Zm.14-6.46a1.84,1.84,0,0,0-1.54.72,3.18,3.18,0,0,0-.56,2,3,3,0,0,0,.55,1.91,1.84,1.84,0,0,0,1.51.69,1.79,1.79,0,0,0,1.51-.72,3.25,3.25,0,0,0,.54-2,3,3,0,0,0-.54-1.92A1.79,1.79,0,0,0,1323.29,716.72Z" transform="translate(-530.93 -259.13)"/><path class="cls-2" d="M726.68,784.74v5.56H725V775.6h4a5.29,5.29,0,0,1,3.65,1.15A4.07,4.07,0,0,1,734,780a4.46,4.46,0,0,1-1.44,3.42,5.5,5.5,0,0,1-3.89,1.33Zm0-7.58v6h1.8a4.08,4.08,0,0,0,2.73-.82,2.89,2.89,0,0,0,.93-2.3c0-1.94-1.14-2.91-3.44-2.91Z" transform="translate(-530.93 -259.13)"/><path class="cls-2" d="M742,781.5a2.27,2.27,0,0,0-3.07.68,4.72,4.72,0,0,0-.73,2.77v5.35h-1.68V779.8h1.68V782h0a3.67,3.67,0,0,1,1.1-1.73,2.46,2.46,0,0,1,1.65-.62,2.9,2.9,0,0,1,1,.14Z" transform="translate(-530.93 -259.13)"/><path class="cls-2" d="M744.65,777.14a1.07,1.07,0,0,1-.76-.31,1.12,1.12,0,0,1,0-1.57,1.07,1.07,0,0,1,.76-.31,1.14,1.14,0,0,1,.79.31,1.07,1.07,0,0,1,.32.79,1.06,1.06,0,0,1-.32.77A1.1,1.1,0,0,1,744.65,777.14Zm.82,13.16h-1.68V779.8h1.68Z" transform="translate(-530.93 -259.13)"/><path class="cls-2" d="M757.13,779.8,753,790.3H751.3l-4-10.5h1.85l2.66,7.63a6.85,6.85,0,0,1,.37,1.47h0a7.16,7.16,0,0,1,.33-1.43l2.79-7.67Z" transform="translate(-530.93 -259.13)"/><path class="cls-2" d="M766.08,790.3h-1.69v-1.64h0a3.52,3.52,0,0,1-3.23,1.89,3.46,3.46,0,0,1-2.45-.83,2.9,2.9,0,0,1-.89-2.21c0-2,1.15-3.1,3.47-3.42l3.14-.44c0-1.79-.72-2.68-2.16-2.68a5.18,5.18,0,0,0-3.43,1.29v-1.72a6.51,6.51,0,0,1,3.57-1q3.71,0,3.71,3.91ZM764.39,785l-2.53.35a4,4,0,0,0-1.76.58,1.67,1.67,0,0,0-.6,1.47,1.61,1.61,0,0,0,.55,1.26,2.14,2.14,0,0,0,1.46.48,2.72,2.72,0,0,0,2.07-.87,3.16,3.16,0,0,0,.81-2.22Z" transform="translate(-530.93 -259.13)"/><path class="cls-2" d="M774.11,790.2a3.21,3.21,0,0,1-1.57.33c-1.83,0-2.75-1-2.75-3.08v-6.21H768V779.8h1.81v-2.56l1.68-.55v3.11h2.64v1.44h-2.64v5.91a2.44,2.44,0,0,0,.36,1.51,1.43,1.43,0,0,0,1.19.45,1.7,1.7,0,0,0,1.09-.35Z" transform="translate(-530.93 -259.13)"/><path class="cls-2" d="M784.63,785.47h-7.41a4,4,0,0,0,.94,2.71,3.26,3.26,0,0,0,2.49,1,5.16,5.16,0,0,0,3.26-1.17v1.58a6.12,6.12,0,0,1-3.66,1,4.45,4.45,0,0,1-3.5-1.43,5.87,5.87,0,0,1-1.27-4,5.72,5.72,0,0,1,1.39-4,4.43,4.43,0,0,1,3.45-1.54,4,4,0,0,1,3.19,1.33,5.56,5.56,0,0,1,1.12,3.7Zm-1.72-1.42a3.46,3.46,0,0,0-.7-2.27,2.39,2.39,0,0,0-1.92-.81,2.69,2.69,0,0,0-2,.85,3.84,3.84,0,0,0-1,2.23Z" transform="translate(-530.93 -259.13)"/><path class="cls-2" d="M794.65,788.78h0v6.35h-1.68V779.8h1.68v1.85h0a4,4,0,0,1,3.63-2.09,3.84,3.84,0,0,1,3.17,1.41,5.83,5.83,0,0,1,1.14,3.77,6.52,6.52,0,0,1-1.28,4.22,4.28,4.28,0,0,1-3.51,1.59A3.52,3.52,0,0,1,794.65,788.78Zm0-4.23V786a3.12,3.12,0,0,0,.85,2.21A3,3,0,0,0,800,788a5.34,5.34,0,0,0,.87-3.25,4.2,4.2,0,0,0-.81-2.74,2.68,2.68,0,0,0-2.2-1,3,3,0,0,0-2.36,1A3.76,3.76,0,0,0,794.61,784.55Z" transform="translate(-530.93 -259.13)"/><path class="cls-2" d="M810.75,781.5a2.09,2.09,0,0,0-1.27-.33,2.13,2.13,0,0,0-1.8,1A4.72,4.72,0,0,0,807,785v5.35h-1.68V779.8H807V782h0a3.66,3.66,0,0,1,1.09-1.73,2.5,2.5,0,0,1,1.66-.62,2.88,2.88,0,0,1,1,.14Z" transform="translate(-530.93 -259.13)"/><path class="cls-2" d="M820.74,785.47h-7.42a4,4,0,0,0,.95,2.71,3.23,3.23,0,0,0,2.48,1A5.16,5.16,0,0,0,820,788v1.58a6.08,6.08,0,0,1-3.66,1,4.47,4.47,0,0,1-3.5-1.43,5.87,5.87,0,0,1-1.27-4,5.72,5.72,0,0,1,1.39-4,4.46,4.46,0,0,1,3.45-1.54,4,4,0,0,1,3.19,1.33,5.56,5.56,0,0,1,1.13,3.7ZM819,784.05a3.4,3.4,0,0,0-.7-2.27,2.39,2.39,0,0,0-1.92-.81,2.7,2.7,0,0,0-2,.85,3.9,3.9,0,0,0-1,2.23Z" transform="translate(-530.93 -259.13)"/><path class="cls-2" d="M822.65,789.92v-1.8a5,5,0,0,0,3,1q2.22,0,2.22-1.47a1.38,1.38,0,0,0-.19-.72,2,2,0,0,0-.52-.51,3.86,3.86,0,0,0-.76-.41l-.93-.37a12.21,12.21,0,0,1-1.23-.56,3.57,3.57,0,0,1-.88-.64,2.12,2.12,0,0,1-.53-.8,2.87,2.87,0,0,1-.18-1.06,2.58,2.58,0,0,1,.33-1.31,3.05,3.05,0,0,1,.91-.95,4,4,0,0,1,1.28-.58,5.77,5.77,0,0,1,1.5-.19,6,6,0,0,1,2.44.47v1.7a4.77,4.77,0,0,0-2.67-.76,3.18,3.18,0,0,0-.85.11,2.05,2.05,0,0,0-.65.3,1.44,1.44,0,0,0-.42.47,1.21,1.21,0,0,0-.15.6,1.4,1.4,0,0,0,.15.68,1.55,1.55,0,0,0,.43.5,3.79,3.79,0,0,0,.7.39l.93.38a11.68,11.68,0,0,1,1.25.54,4.26,4.26,0,0,1,.95.64,2.52,2.52,0,0,1,.6.82,2.58,2.58,0,0,1,.21,1.09,2.62,2.62,0,0,1-.35,1.36,2.85,2.85,0,0,1-.91.95,4.3,4.3,0,0,1-1.33.56,6.17,6.17,0,0,1-1.56.19A5.92,5.92,0,0,1,822.65,789.92Z" transform="translate(-530.93 -259.13)"/><path class="cls-2" d="M839.71,790.3H838v-1.64h0a3.53,3.53,0,0,1-3.24,1.89,3.46,3.46,0,0,1-2.45-.83,2.9,2.9,0,0,1-.89-2.21q0-2.94,3.47-3.42l3.15-.44c0-1.79-.73-2.68-2.17-2.68a5.17,5.17,0,0,0-3.42,1.29v-1.72a6.47,6.47,0,0,1,3.57-1c2.46,0,3.7,1.3,3.7,3.91ZM838,785l-2.54.35a4.07,4.07,0,0,0-1.76.58,1.67,1.67,0,0,0-.6,1.47,1.64,1.64,0,0,0,.55,1.26,2.16,2.16,0,0,0,1.46.48,2.7,2.7,0,0,0,2.07-.87A3.17,3.17,0,0,0,838,786Z" transform="translate(-530.93 -259.13)"/><path class="cls-2" d="M844.56,790.3h-1.68V774.76h1.68Z" transform="translate(-530.93 -259.13)"/><path class="cls-2" d="M856.4,785.47H849a3.91,3.91,0,0,0,.94,2.71,3.23,3.23,0,0,0,2.48,1,5.16,5.16,0,0,0,3.26-1.17v1.58a6.08,6.08,0,0,1-3.66,1,4.43,4.43,0,0,1-3.49-1.43,5.87,5.87,0,0,1-1.28-4,5.77,5.77,0,0,1,1.39-4,4.46,4.46,0,0,1,3.45-1.54,3.93,3.93,0,0,1,3.19,1.33,5.56,5.56,0,0,1,1.13,3.7Zm-1.72-1.42a3.46,3.46,0,0,0-.7-2.27,2.42,2.42,0,0,0-1.93-.81,2.72,2.72,0,0,0-2,.85,3.89,3.89,0,0,0-1,2.23Z" transform="translate(-530.93 -259.13)"/><path class="cls-2" d="M784.6,800.8v9.71h1.88v1.54H784.6v3.45h-1.66v-3.45H776v-1.46c.64-.72,1.29-1.5,1.94-2.32s1.29-1.66,1.89-2.51,1.15-1.69,1.66-2.54a23,23,0,0,0,1.28-2.42Zm-6.68,9.71h5v-7.2c-.52.9-1,1.7-1.46,2.4s-.89,1.34-1.31,1.92-.81,1.09-1.18,1.56Z" transform="translate(-530.93 -259.13)"/><path class="cls-2" d="M791.34,808.17a3.1,3.1,0,0,1-2.42-1,3.85,3.85,0,0,1-.9-2.67,4.11,4.11,0,0,1,1-2.88,3.29,3.29,0,0,1,2.57-1,3.1,3.1,0,0,1,2.44,1,4.69,4.69,0,0,1-.11,5.56A3.26,3.26,0,0,1,791.34,808.17Zm.15-6.47a1.86,1.86,0,0,0-1.54.72,3.16,3.16,0,0,0-.56,2,3,3,0,0,0,.55,1.93,1.83,1.83,0,0,0,1.51.69,1.77,1.77,0,0,0,1.5-.72,3.15,3.15,0,0,0,.55-2,3.09,3.09,0,0,0-.54-1.94A1.77,1.77,0,0,0,791.49,801.7Zm9.7-.9-9.44,14.8h-1.46l9.42-14.8Zm-1.09,14.93a3.1,3.1,0,0,1-2.42-1,3.84,3.84,0,0,1-.9-2.66,4.15,4.15,0,0,1,1-2.89,3.31,3.31,0,0,1,2.57-1.06,3.09,3.09,0,0,1,2.43,1,4.69,4.69,0,0,1-.1,5.58A3.3,3.3,0,0,1,800.1,815.73Zm.15-6.46a1.85,1.85,0,0,0-1.55.72,3.15,3.15,0,0,0-.56,2,3,3,0,0,0,.56,1.92,1.82,1.82,0,0,0,1.5.69,1.78,1.78,0,0,0,1.51-.72,3.29,3.29,0,0,0,.54-2,3.06,3.06,0,0,0-.53-1.93A1.78,1.78,0,0,0,800.25,809.27Z" transform="translate(-530.93 -259.13)"/><path class="cls-2" d="M570.57,579.65h-7.63V564.94h1.73v13.15h5.9Z" transform="translate(-530.93 -259.13)"/><path class="cls-2" d="M573.46,566.48a1,1,0,0,1-.76-.31,1,1,0,0,1-.32-.78,1.08,1.08,0,0,1,1.08-1.09,1.09,1.09,0,0,1,.79.31,1.1,1.1,0,0,1,0,1.55A1.1,1.1,0,0,1,573.46,566.48Zm.82,13.17H572.6v-10.5h1.68Z" transform="translate(-530.93 -259.13)"/><path class="cls-2" d="M586.65,584.48H585v-6.64h0a3.76,3.76,0,0,1-3.59,2,3.93,3.93,0,0,1-3.17-1.41,5.73,5.73,0,0,1-1.2-3.84,6.34,6.34,0,0,1,1.31-4.18,4.38,4.38,0,0,1,3.53-1.56,3.32,3.32,0,0,1,3.12,1.7h0v-1.45h1.68ZM585,574.92v-1.53a3,3,0,0,0-.85-2.18,2.82,2.82,0,0,0-2.15-.9,2.86,2.86,0,0,0-2.39,1.13,5,5,0,0,0-.89,3.16,4.4,4.4,0,0,0,.85,2.85,2.74,2.74,0,0,0,2.2,1,3,3,0,0,0,2.35-1A3.75,3.75,0,0,0,585,574.92Z" transform="translate(-530.93 -259.13)"/><path class="cls-2" d="M598.54,579.65h-1.68V578h0a3.44,3.44,0,0,1-3.24,1.91q-3.75,0-3.75-4.47v-6.27h1.67v6c0,2.22.85,3.33,2.54,3.33a2.6,2.6,0,0,0,2-.91,3.48,3.48,0,0,0,.79-2.37v-6.05h1.68Z" transform="translate(-530.93 -259.13)"/><path class="cls-2" d="M602.8,566.48a1,1,0,0,1-.77-.31,1,1,0,0,1-.32-.78,1.06,1.06,0,0,1,.32-.78,1.12,1.12,0,0,1,1.55,0,1.08,1.08,0,0,1,0,1.55A1.06,1.06,0,0,1,602.8,566.48Zm.82,13.17h-1.68v-10.5h1.68Z" transform="translate(-530.93 -259.13)"/><path class="cls-2" d="M616,579.65h-1.68v-1.79h0a3.87,3.87,0,0,1-3.6,2,3.93,3.93,0,0,1-3.17-1.41,5.78,5.78,0,0,1-1.18-3.84,6.31,6.31,0,0,1,1.31-4.17,4.33,4.33,0,0,1,3.5-1.57,3.36,3.36,0,0,1,3.14,1.7h0v-6.5H616Zm-1.68-4.75v-1.55a3,3,0,0,0-.85-2.15,2.81,2.81,0,0,0-2.13-.89,2.92,2.92,0,0,0-2.42,1.13,4.93,4.93,0,0,0-.88,3.12,4.44,4.44,0,0,0,.85,2.87,2.76,2.76,0,0,0,2.27,1.05,2.88,2.88,0,0,0,2.28-1A3.81,3.81,0,0,0,614.31,574.9Z" transform="translate(-530.93 -259.13)"/><path class="cls-2" d="M620.25,566.48a1,1,0,0,1-.77-.31,1,1,0,0,1-.31-.78,1.06,1.06,0,0,1,1.08-1.09,1.09,1.09,0,0,1,.79.31,1.1,1.1,0,0,1,0,1.55A1.1,1.1,0,0,1,620.25,566.48Zm.82,13.17h-1.68v-10.5h1.68Z" transform="translate(-530.93 -259.13)"/><path class="cls-2" d="M629.35,579.54a3.24,3.24,0,0,1-1.57.33c-1.84,0-2.76-1-2.76-3.08v-6.21h-1.8v-1.43H625v-2.57l1.68-.54v3.11h2.65v1.43H626.7v5.92a2.43,2.43,0,0,0,.36,1.5,1.42,1.42,0,0,0,1.19.46,1.81,1.81,0,0,0,1.1-.35Z" transform="translate(-530.93 -259.13)"/><path class="cls-2" d="M640,569.15l-4.83,12.18q-1.29,3.25-3.63,3.26a3.82,3.82,0,0,1-1.1-.14V583a3.26,3.26,0,0,0,1,.18,2.06,2.06,0,0,0,1.91-1.52l.84-2L630,569.15h1.86l2.84,8.08c0,.1.11.36.22.8H635c0-.17.1-.43.2-.78l3-8.1Z" transform="translate(-530.93 -259.13)"/><path class="cls-2" d="M649.23,578.13h0v6.35h-1.68V569.15h1.68V571h0a4,4,0,0,1,3.63-2.09,3.85,3.85,0,0,1,3.17,1.41,5.84,5.84,0,0,1,1.14,3.78,6.56,6.56,0,0,1-1.28,4.22,4.3,4.3,0,0,1-3.51,1.58A3.53,3.53,0,0,1,649.23,578.13Zm0-4.24v1.47a3.11,3.11,0,0,0,.85,2.21,3,3,0,0,0,4.54-.26,5.34,5.34,0,0,0,.86-3.25,4.23,4.23,0,0,0-.81-2.75,2.69,2.69,0,0,0-2.19-1,3,3,0,0,0-2.36,1A3.78,3.78,0,0,0,649.19,573.89Z" transform="translate(-530.93 -259.13)"/><path class="cls-2" d="M664.24,579.89a4.85,4.85,0,0,1-3.71-1.47,5.43,5.43,0,0,1-1.39-3.9,5.67,5.67,0,0,1,1.44-4.13,5.22,5.22,0,0,1,3.91-1.49,4.7,4.7,0,0,1,3.66,1.44,5.75,5.75,0,0,1,1.32,4,5.63,5.63,0,0,1-1.42,4A5,5,0,0,1,664.24,579.89Zm.13-9.58a3.2,3.2,0,0,0-2.57,1.11,4.51,4.51,0,0,0-.94,3,4.31,4.31,0,0,0,.95,2.94,3.25,3.25,0,0,0,2.56,1.08,3,3,0,0,0,2.5-1.06,4.55,4.55,0,0,0,.88-3,4.63,4.63,0,0,0-.88-3A3.05,3.05,0,0,0,664.37,570.31Z" transform="translate(-530.93 -259.13)"/><path class="cls-2" d="M676.55,579.89a4.89,4.89,0,0,1-3.72-1.47,5.43,5.43,0,0,1-1.39-3.9,5.64,5.64,0,0,1,1.45-4.13,5.18,5.18,0,0,1,3.9-1.49,4.72,4.72,0,0,1,3.67,1.44,5.75,5.75,0,0,1,1.32,4,5.68,5.68,0,0,1-1.42,4A5,5,0,0,1,676.55,579.89Zm.12-9.58a3.18,3.18,0,0,0-2.56,1.11,4.52,4.52,0,0,0-1,3,4.27,4.27,0,0,0,1,2.94,3.22,3.22,0,0,0,2.55,1.08,3.07,3.07,0,0,0,2.51-1.06,4.6,4.6,0,0,0,.87-3,4.69,4.69,0,0,0-.87-3A3.08,3.08,0,0,0,676.67,570.31Z" transform="translate(-530.93 -259.13)"/><path class="cls-2" d="M686.14,579.65h-1.68V564.1h1.68Z" transform="translate(-530.93 -259.13)"/><path class="cls-2" d="M604.5,594a3,3,0,0,0-.21-1.18,2.22,2.22,0,0,0-.58-.84,2.42,2.42,0,0,0-.85-.5,3.69,3.69,0,0,0-1.07-.16,3.83,3.83,0,0,0-1,.13,5.2,5.2,0,0,0-.92.37,5.34,5.34,0,0,0-.86.57,6,6,0,0,0-.78.73v-1.81a5,5,0,0,1,1.59-1,5.6,5.6,0,0,1,2.14-.36,5,5,0,0,1,1.67.26,3.88,3.88,0,0,1,1.33.76,3.61,3.61,0,0,1,.89,1.24,4.28,4.28,0,0,1,.32,1.69,5.94,5.94,0,0,1-.2,1.58,4.91,4.91,0,0,1-.61,1.34,6.52,6.52,0,0,1-1,1.19,13,13,0,0,1-1.44,1.17c-.69.5-1.26.92-1.71,1.27a6.47,6.47,0,0,0-1.06,1,2.71,2.71,0,0,0-.56.91,3.05,3.05,0,0,0-.16,1.05h7.32v1.51H597.7v-.73a6.34,6.34,0,0,1,.2-1.66,4.5,4.5,0,0,1,.68-1.37,7.4,7.4,0,0,1,1.24-1.29c.51-.43,1.13-.92,1.87-1.46a11.8,11.8,0,0,0,1.34-1.09,6.11,6.11,0,0,0,.86-1,3.67,3.67,0,0,0,.47-1.06A4.68,4.68,0,0,0,604.5,594Z" transform="translate(-530.93 -259.13)"/><path class="cls-2" d="M616.62,590.14v9.71h1.88v1.54h-1.88v3.46H615v-3.46H608v-1.46c.65-.72,1.3-1.49,2-2.32s1.29-1.66,1.89-2.51,1.15-1.69,1.66-2.53a26.33,26.33,0,0,0,1.28-2.43Zm-6.68,9.71h5v-7.2c-.52.9-1,1.7-1.46,2.4s-.89,1.35-1.31,1.92-.81,1.09-1.18,1.56Z" transform="translate(-530.93 -259.13)"/><path class="cls-2" d="M621.51,605.07a1.09,1.09,0,0,1-.81-.34,1.1,1.1,0,0,1-.33-.81,1.13,1.13,0,0,1,.33-.81,1.1,1.1,0,0,1,.81-.35,1.12,1.12,0,0,1,.82.35,1.14,1.14,0,0,1,.34.81,1.16,1.16,0,0,1-1.16,1.15Z" transform="translate(-530.93 -259.13)"/><path class="cls-2" d="M625.46,604.49V602.7a5.56,5.56,0,0,0,3.06,1,3.53,3.53,0,0,0,2.51-.89,3,3,0,0,0,1-2.33,2.78,2.78,0,0,0-1-2.26,4.26,4.26,0,0,0-2.79-.81c-.41,0-1.17,0-2.3.12v-7.37H633v1.52h-5.52V596c.45,0,.87-.05,1.25-.05a5.21,5.21,0,0,1,3.65,1.19,4.18,4.18,0,0,1,1.29,3.24,4.48,4.48,0,0,1-1.39,3.44,5.35,5.35,0,0,1-3.81,1.3A6.06,6.06,0,0,1,625.46,604.49Z" transform="translate(-530.93 -259.13)"/><path class="cls-2" d="M639.24,597.51a3.09,3.09,0,0,1-2.42-1,3.82,3.82,0,0,1-.9-2.67,4.09,4.09,0,0,1,1-2.87,3.29,3.29,0,0,1,2.57-1.05,3.09,3.09,0,0,1,2.44,1,4,4,0,0,1,.86,2.74,4,4,0,0,1-1,2.82A3.28,3.28,0,0,1,639.24,597.51Zm.14-6.47a1.86,1.86,0,0,0-1.54.73,3.17,3.17,0,0,0-.56,2,3,3,0,0,0,.55,1.93,2,2,0,0,0,3,0,3.25,3.25,0,0,0,.54-2,3.06,3.06,0,0,0-.54-1.93A1.75,1.75,0,0,0,639.38,591Zm9.7-.9L639.65,605h-1.47l9.42-14.81ZM648,605.07a3.1,3.1,0,0,1-2.42-1,3.85,3.85,0,0,1-.9-2.67,4.11,4.11,0,0,1,1-2.89,3.3,3.3,0,0,1,2.56-1.06,3.06,3.06,0,0,1,2.43,1,4.68,4.68,0,0,1-.1,5.57A3.26,3.26,0,0,1,648,605.07Zm.15-6.46a1.86,1.86,0,0,0-1.55.72,3.18,3.18,0,0,0-.55,2,3,3,0,0,0,.55,1.91,1.83,1.83,0,0,0,1.51.69,1.77,1.77,0,0,0,1.5-.72,3.17,3.17,0,0,0,.55-2,3,3,0,0,0-.54-1.93A1.79,1.79,0,0,0,648.14,598.61Z" transform="translate(-530.93 -259.13)"/><text class="cls-3" transform="translate(17.19 188.3)">Eme<tspan class="cls-4" x="38.37" y="0">r</tspan><tspan x="45.07" y="0">gen</tspan><tspan class="cls-5" x="78.98" y="0">c</tspan><tspan x="88.77" y="0">y funds</tspan><tspan x="55.05" y="25.2">1.5%</tspan></text><text class="cls-3" transform="translate(0 101.04)"><tspan class="cls-6">G</tspan><tspan x="13.73" y="0">ame and e</tspan><tspan class="cls-7" x="104.94" y="0">c</tspan><tspan class="cls-8" x="114.22" y="0">os</tspan><tspan class="cls-7" x="134.06" y="0">y</tspan><tspan x="143.83" y="0">s</tspan><tspan class="cls-9" x="152.14" y="0">t</tspan><tspan class="cls-10" x="158.97" y="0">em</tspan><tspan x="79.8" y="25.2">9%</tspan></text></svg>