<svg id="Layer_1" data-name="Layer 1" xmlns="http://www.w3.org/2000/svg" viewBox="0 0 131.94 132.04"><defs><style>.cls-1{fill:none;stroke:aqua;stroke-miterlimit:10;stroke-width:3px;}</style></defs><path class="cls-1" d="M142.24,95.81a28.4,28.4,0,0,1-19.52-8c-2.81-2.68-3.07-6-.78-8.55s5.88-2.6,8.83,0c7.87,6.81,17.46,6.56,24.87-.78Q168.42,65.8,181.08,53c7.37-7.42,7.66-18.18.76-25.09-7.12-7.13-17.84-7-25.32.42Q145.72,39,135,49.85c-1.85,1.87-4.18,2.68-6.36,1.63a7.51,7.51,0,0,1-3.73-4.31,6.55,6.55,0,0,1,1.49-5.23c7.77-8.07,15.5-16.23,23.79-23.75a28.85,28.85,0,0,1,40.52,1.94A29.17,29.17,0,0,1,190,60.75q-13.26,13.41-26.68,26.67A28.1,28.1,0,0,1,142.24,95.81Z" transform="translate(-68.17 -9.3)"/><path class="cls-1" d="M125.81,54.85A27.86,27.86,0,0,1,145.69,63c2.74,2.63,2.93,6,.56,8.56s-5.79,2.44-8.62,0c-8-7-17.6-6.66-25.09.8-8.7,8.67-17.43,17.3-26,26.07a17.34,17.34,0,0,0,18.34,28.48,22.22,22.22,0,0,0,6.94-4.67c7.3-7,14.41-14.27,21.55-21.46,1.86-1.87,4.22-2.62,6.38-1.52a7.49,7.49,0,0,1,3.65,4.38,6.62,6.62,0,0,1-1.59,5.22c-7.7,8-15.36,16.09-23.57,23.56A29.16,29.16,0,0,1,78.39,89.8q13-13,26.06-26.06C110.35,57.85,116.77,55.09,125.81,54.85Z" transform="translate(-68.17 -9.3)"/></svg>