<svg id="Layer_1" data-name="Layer 1" xmlns="http://www.w3.org/2000/svg" viewBox="0 0 95.85 76.37"><defs><style>.cls-1{fill:#38ffff;}</style></defs><path class="cls-1" d="M183.94,184.77H168.15v-1.45c0-.57,0-1.13,0-1.7,0-1.57,0-3.2,0-4.8a1.67,1.67,0,0,0-.4-.94c-.66-.73-1.37-1.44-2.13-2.19a1.59,1.59,0,0,1-.13-.13v11.2H149.7V173.68l-.13.13c-.9.9-1.76,1.75-2.56,2.61a1.81,1.81,0,0,0,0,.42V177c0,1.85,0,3.7,0,5.58v2.21H132.55l25.17-25.14,18.4,18.45L205,149.21l4,4.12L217,132.94,196.7,141l4,3.81-24.5,24.43-18.47-18.5-26.4,26.43V134H147v21l.24-.24c.83-.82,1.68-1.67,2.48-2.53,0-.05,0-.33,0-.47a2.35,2.35,0,0,1,0-.26q0-14.13,0-28.27v-3.82h15.79v7.64q0,12.18,0,24.36a1.62,1.62,0,0,0,.54,1.32c.67.63,1.32,1.3,2,2l.14.14V133.28h15.77v22.14l.25-.26c.8-.79,1.63-1.62,2.4-2.47a2,2,0,0,0,.05-.64v-.16q0-10.66,0-21.33V125h15.71v8.87l.3-.11c.81-.31,1.57-.61,2.3-1a1.22,1.22,0,0,0,.11-.49q0-6.54,0-13.07v-5.08h15.72v70.53H205.06v-6.21q0-11,0-22.1a2.57,2.57,0,0,0-.14-.68l-.35.35c-.78.78-1.46,1.45-2.1,2.15a2,2,0,0,0-.08.7q0,10.2,0,20.39v5.4H186.62V174.08l-.12.12c-.89.88-1.74,1.71-2.54,2.55a3,3,0,0,0,0,.46v.07c0,1.5,0,3,0,4.5Zm-14.81-1H183v-2c0-1.5,0-3,0-4.5v-.08a1.56,1.56,0,0,1,.29-1.12c.82-.86,1.66-1.69,2.56-2.58l1.79-1.77v12h13.78v-4.42q0-10.2,0-20.39a2,2,0,0,1,.34-1.35c.66-.73,1.34-1.41,2.13-2.19.3-.3.61-.6.93-.93l.61-.61.21.83c.06.24.13.45.19.63a3.71,3.71,0,0,1,.22,1.1q0,11.06,0,22.1v5.23H219.8V115.19H206v4.1q0,6.54,0,13.07c0,.29-.11,1.1-.62,1.35-.78.37-1.58.68-2.42,1l-.95.38-.68.26V126H187.59v4.54q0,10.66,0,21.33V152a1.89,1.89,0,0,1-.3,1.31c-.79.87-1.63,1.7-2.44,2.51l-.87.87-.24.25-.81-.39V134.26H169.11v23l-.83-.85c-.35-.34-.67-.68-1-1-.71-.73-1.33-1.36-2-2a2.54,2.54,0,0,1-.85-2q0-12.18,0-24.36v-6.67H150.65v31.12a1.7,1.7,0,0,0,0,.22,1.62,1.62,0,0,1-.26,1.17c-.81.88-1.67,1.74-2.51,2.56l-.86.86-.25.25-.8-.39V135h-13.7v39.85l25.42-25.45,18.48,18.51,23.09-23-4.34-4.17,23.87-9.51-9.54,23.91L205,150.61l-28.83,28.84L157.72,161l-22.8,22.78H146v-1.22c0-1.89,0-3.74,0-5.59v-.11a1.5,1.5,0,0,1,.27-1.1c.82-.87,1.68-1.73,2.59-2.63l1.79-1.81v12.47h13.82V171.19l.84.84,1,1c.77.76,1.49,1.48,2.16,2.22a2.53,2.53,0,0,1,.66,1.57c0,1.62,0,3.25,0,4.84,0,.56,0,1.12,0,1.69Z" transform="translate(-124.94 -114.2)"/><path class="cls-1" d="M220.79,190.57H124.94V114.2h3.55v72.39a3.5,3.5,0,0,0,0,.46h92.3Zm-94.87-1h93.89V188H128.94c-.57,0-.91,0-1.18-.25s-.26-.62-.25-1.2v-71.4h-1.59Z" transform="translate(-124.94 -114.2)"/></svg>