<svg id="Layer_1" data-name="Layer 1" xmlns="http://www.w3.org/2000/svg" viewBox="0 0 88.05 91.65"><defs><style>.cls-1{fill:#38ffff;}</style></defs><path class="cls-1" d="M183.23,198.21h-1.09l-1.47-.23c-1-.16-2.09-.33-3.14-.48l-14.36-2-34.33-4.7v-77l54.45-7.27v7.65H210c4.23,0,6.85,2.61,6.85,6.79q0,31.32,0,62.64a7.73,7.73,0,0,1-.18,1.87,6.28,6.28,0,0,1-6.53,4.9H183.23Zm-1-1h0v-7.8h27.91a5.35,5.35,0,0,0,5.59-4.15,7.15,7.15,0,0,0,.15-1.64q0-31.32,0-62.64c0-3.69-2.14-5.8-5.87-5.81H182.31v-7.51l-52.49,7V190l33.49,4.59,14.35,2c1.06.15,2.11.32,3.17.48Zm9.42-10.16h-9.32V171.75H207.4c1.94,0,2.63-.69,2.63-2.61V137.92c0-1.9-.67-2.57-2.56-2.58h-1.31v.46c0,.74,0,1.46,0,2.19v.28a1.88,1.88,0,0,1-.21,1.2,2.63,2.63,0,0,1-1.54,1.12,1.49,1.49,0,0,1-1.22-.32,1.54,1.54,0,0,1-.57-1.16c0-1,0-2,0-3,0-.24,0-.47,0-.7l-3.33-.07V136c0,.89,0,1.78,0,2.67a1.82,1.82,0,0,1-1.79,2,1.84,1.84,0,0,1-1.8-2c0-.9,0-1.8,0-2.68,0-.21,0-.42,0-.63l-4.21.07c0,.23,0,.47,0,.7,0,1,0,2,0,2.93a1.75,1.75,0,0,1-3.47,0c-.06-.64-.06-1.3-.07-1.93v-.65c0-.36,0-.72,0-1.07h-3v.08h-.12v.52c0,.87,0,1.74-.05,2.61,0,1.2-.54,1.73-1.86,2l-.58.11v-6.47l1.44.16c-.14-.67-.3-.71-1.1-.91l-.37-.09V117.62l.81-.05.74,0h26c2.6,0,3.65,1,3.65,3.61q0,31.14,0,62.28c0,2.55-1.08,3.64-3.62,3.64Zm-8.34-1h26.61c2,0,2.64-.62,2.64-2.66q0-31.14,0-62.28c0-2-.62-2.63-2.67-2.63h-26l-.57,0v14.13c1,.31,1.28.7,1.49,1.81H189v1c0,.35,0,.71,0,1.06v.67c0,.61,0,1.24.07,1.84a.67.67,0,0,0,.78.63c.17,0,.71-.06.73-.59,0-.95,0-1.93,0-2.87,0-.24,0-.48,0-.71h-.72l1.66-1.69,0,.68,5.2-.09V136c0,.86,0,1.76,0,2.64,0,.62.34,1,.83,1s.8-.38.81-1c0-.88,0-1.76,0-2.65l0-1.64,4.33.09,0-.71,1.65,1.71h-.7c0,.24,0,.48,0,.71,0,.95-.05,1.94,0,2.9a.56.56,0,0,0,.21.43.55.55,0,0,0,.43.12,1.77,1.77,0,0,0,.91-.72,1.8,1.8,0,0,0,0-.6c0-.12,0-.23,0-.34,0-.71,0-1.43,0-2.17v-1.44h2.29c2.42,0,3.54,1.14,3.54,3.56v31.22c0,2.48-1.11,3.59-3.61,3.59H183.33Zm0-50.73v4.16c.41-.17.46-.41.48-.88,0-.87,0-1.74,0-2.61v-.61Zm25.49,34.82H182.36v-25.8h26.49Zm-25.51-1h24.53V145.36H183.34v2.89h4.08c5.3,0,10.79,0,16.19,0a2.1,2.1,0,0,1,1,.31l.3.14,1.19.48-1.2.44-.31.14a2.29,2.29,0,0,1-1,.28q-8.17,0-16.35,0h-3.92v3h3.73q8.4,0,16.79,0a1.6,1.6,0,0,1,.83.3l.22.12.93.43-.92.46a1.27,1.27,0,0,0-.23.12,4.54,4.54,0,0,1-.67.3,1.45,1.45,0,0,1-.61,0H183.31v3.89h20.23l.22,0a1.24,1.24,0,0,1,1,.14,1,1,0,0,1,.37.74l0,.22-.16.19a2.6,2.6,0,0,1-1.43.5q-8.13,0-16.24,0h-4v3h4.14q8,0,16.1,0a2.59,2.59,0,0,1,1.43.49l.14.15v.25a1,1,0,0,1-.35.75,1.24,1.24,0,0,1-1,.18l-.21,0H183.34Zm-11.16-5.59a15.55,15.55,0,0,1-4.5-.65,8.66,8.66,0,0,1-6.16-7.89c-.26-3.64.72-6.42,3-8.52a11.39,11.39,0,0,1,8.26-2.81,28.31,28.31,0,0,1,3.38.31c.53.07,1.06.15,1.61.21l.57.06L177.07,149l-.49-.16a11.32,11.32,0,0,0-5.11-.59c-3.35.45-5,2.64-4.69,6.32a5,5,0,0,0,5.46,4.68,3.74,3.74,0,0,0,1.28-.12,3.74,3.74,0,0,0,.1-1.29v-1.71H170.8v-4.26h7.8v9.67a1.15,1.15,0,0,1-.89,1.32A22.38,22.38,0,0,1,172.18,163.62Zm.34-18.9a10.29,10.29,0,0,0-7.35,2.56c-2.06,1.91-2.91,4.36-2.67,7.73a7.7,7.7,0,0,0,5.46,7,17.18,17.18,0,0,0,9.5-.13.36.36,0,0,0,.15-.06,2.63,2.63,0,0,0,0-.31v-8.69h-5.84v2.3h2.81v2.69c0,2.13-.21,2.35-2.33,2.38-3.62.07-6.2-2.18-6.46-5.58-.32-4.22,1.65-6.83,5.54-7.36a12,12,0,0,1,5,.47l.69-2.57L176,145a26.88,26.88,0,0,0-3.26-.3Zm-20.89,18.65-.75,0a8,8,0,0,1-7.21-5.95,11.19,11.19,0,0,1,1.21-9.57,7.89,7.89,0,0,1,6.82-3.76h0a8.23,8.23,0,0,1,8.5,6.49,12.37,12.37,0,0,1-.52,7.67C158.33,161.56,155.49,163.37,151.63,163.37Zm.08-18.32a7,7,0,0,0-6,3.32,10.26,10.26,0,0,0-1.09,8.76,7,7,0,0,0,6.33,5.24c3.79.22,6.57-1.38,7.84-4.51a11.35,11.35,0,0,0,.48-7.07c-.88-3.64-3.63-5.74-7.55-5.74Zm-8.19,17.81H132.58v-18l.41-.07.13,0a2,2,0,0,1,.45-.06h3.52v13.89h6.43Zm-10-1h9v-2.27h-6.43V145.72h-2.55Z" transform="translate(-128.84 -106.56)"/><path class="cls-1" d="M195.54,135.41l.18-.68a.43.43,0,0,0,0,0c.24-1.77,1.2-2.08,1.94-2s1.66.48,1.68,2.27v.49Zm2-1.79c-.24,0-.55.08-.73.81h1.56c-.12-.76-.5-.79-.72-.8Z" transform="translate(-128.84 -106.56)"/><path class="cls-1" d="M189.74,137l.57-1.55-2.17-.16-.07-.38a1.63,1.63,0,0,1,1-2,2.31,2.31,0,0,1,1.7.08,1.57,1.57,0,0,1,.86,1.58l.5,0-.68.7-.23.61-.19-.19Zm-.73-2.63,1.6.12a.58.58,0,0,0-.33-.63,1.35,1.35,0,0,0-.91,0A.52.52,0,0,0,189,134.32Z" transform="translate(-128.84 -106.56)"/><path class="cls-1" d="M204,136.53l-1.24-1.27-.53-.72.39,0a1.89,1.89,0,0,1,.34-1.2,1.77,1.77,0,0,1,2.47-.3,2.35,2.35,0,0,1,.68,1.75v.46l-.47,0-1.89.15Zm.38-2.91h-.12a.72.72,0,0,0-.51.26.91.91,0,0,0-.15.56l1.47-.12a1,1,0,0,0-.28-.57A.61.61,0,0,0,204.38,133.62Z" transform="translate(-128.84 -106.56)"/><path class="cls-1" d="M151.7,160.21h0a4,4,0,0,1-3.43-2.08,8.56,8.56,0,0,1,.05-8.83,4,4,0,0,1,3.41-2.06h0a4.2,4.2,0,0,1,3.64,2.2,8.13,8.13,0,0,1,1,4.37,8,8,0,0,1-1,4.26A4.2,4.2,0,0,1,151.7,160.21Zm0-12h0a3,3,0,0,0-2.56,1.56,7.62,7.62,0,0,0,0,7.87,3,3,0,0,0,2.58,1.58,3.28,3.28,0,0,0,2.81-1.65,7.21,7.21,0,0,0,.9-3.77h0a7.16,7.16,0,0,0-.88-3.87A3.26,3.26,0,0,0,151.7,148.22Z" transform="translate(-128.84 -106.56)"/></svg>