<svg id="Layer_1" data-name="Layer 1" xmlns="http://www.w3.org/2000/svg" viewBox="0 0 102.16 93.96"><defs><style>.cls-1{fill:#38ffff;}</style></defs><path class="cls-1" d="M148.42,173.93a4.19,4.19,0,0,1-3.14-1,4.33,4.33,0,0,1-1-3.23c0-7.38,0-14.89,0-22.15q0-7.64,0-15.27c0-3.24,1.06-4.29,4.33-4.33,1.69,0,3.39,0,5,0h1.83c5.33-15.55,13.31-22.5,25.85-22.51h0c12.55,0,20.54,6.95,25.85,22.51h1.89c1.71,0,3.48,0,5.23,0a4.08,4.08,0,0,1,3.08,1,4.13,4.13,0,0,1,1,3.07c0,11.56,0,24,0,38a4,4,0,0,1-1,3,4.28,4.28,0,0,1-3.16,1h0c-23.7,0-45.23,0-65.82,0Zm3-45.05-2.8,0c-2.73,0-3.36.66-3.36,3.36q0,7.62,0,15.26c0,7.26,0,14.77,0,22.15a3.48,3.48,0,0,0,.75,2.54,3.34,3.34,0,0,0,2.45.74h0c20.59,0,42.12,0,65.82,0h0a3.38,3.38,0,0,0,2.47-.74,3.1,3.1,0,0,0,.71-2.28c0-14,0-26.42,0-38a3.19,3.19,0,0,0-.74-2.37,3.15,3.15,0,0,0-2.38-.7c-1.76,0-3.53,0-5.25,0h-2.58l-.11-.33c-5.16-15.34-12.89-22.18-25-22.18h0c-12.14,0-19.86,6.85-25,22.18l-.11.33h-4.76Zm61.18,39.23H150.11V133.63h6l.12.32c5.53,15.76,13.24,22.36,25.77,22.08,11.91-.26,19.83-7.45,24.23-22l.1-.35h6.21Zm-61.5-1h60.52V134.68h-4.5c-4.5,14.56-12.92,22.07-25,22.33-12.94.29-20.91-6.42-26.6-22.4h-4.38Zm30.24-15.74a20.32,20.32,0,0,1-20.18-20.17h0A20.22,20.22,0,0,1,181.32,111h0a20.18,20.18,0,0,1,0,40.36Zm-19.2-20.17a19.33,19.33,0,0,0,19.2,19.19h0a19.2,19.2,0,0,0,0-38.4h0a19.24,19.24,0,0,0-19.19,19.21Z" transform="translate(-121.78 -105.4)"/><path class="cls-1" d="M156.17,199.36a9,9,0,0,1-5.6-2c-3.45-2.76-4.08-6.52-2-12.13H138.07c-4.16,0-5-.87-5-5.11V169c0-11.2,0-22.78-.08-34.17a6.38,6.38,0,0,0-1.57-3.78c-2-2.22-4.14-4.34-6.24-6.38l-1.64-1.59c-.9-.88-3-2.94-.77-5.28a3.21,3.21,0,0,1,2.24-1.14h0a5,5,0,0,1,3.21,1.84l2.92,2.86c2.22,2.16,4.51,4.39,6.61,6.73a7.72,7.72,0,0,1,1.76,4.79c.09,11.06.09,22.31.08,33.19,0,3.19,0,6.37,0,9.56v2.92h78.61c.21,0,.44,0,.68,0a2.77,2.77,0,0,1,1.79.18l.28.17c1.17.72,2.62,1.6,2.89,2.78a2.62,2.62,0,0,1-.45,2.28,3.75,3.75,0,0,1-2.93,1.23c-2.23,0-4.45,0-6.79,0h-2.32c2.51,5.29,1.63,9.56-2.61,12.7a8.44,8.44,0,0,1-10-.36c-3.63-2.78-4.26-6-2.29-12.14H164.28c0,.67.06,1.35.1,2a27.4,27.4,0,0,1-.12,6.14c-.31,1.82-2.27,3.5-3.42,4.34A7.85,7.85,0,0,1,156.17,199.36Zm-6.88-15.1H150l-.26.67c-2.24,5.6-1.81,9.09,1.43,11.67a7.52,7.52,0,0,0,9.09.48c1.73-1.28,2.84-2.63,3-3.72a26.56,26.56,0,0,0,.1-5.92c-.05-.83-.1-1.7-.11-2.55v-.5h34.51l-.22.64c-2.09,6.16-1.64,9.11,1.75,11.7a7.43,7.43,0,0,0,8.85.35c4-3,4.69-7,2-12.18l-.38-.71h3.92c2.34,0,4.56,0,6.77,0a2.79,2.79,0,0,0,2.18-.86,1.63,1.63,0,0,0,.26-1.45c-.17-.78-1.48-1.58-2.44-2.16l-.28-.17a2.21,2.21,0,0,0-1.18,0,6.65,6.65,0,0,1-.78.06H138.63v-3.9c0-3.19,0-6.37,0-9.56,0-10.88,0-22.12-.08-33.18a6.75,6.75,0,0,0-1.51-4.14c-2.08-2.32-4.36-4.54-6.56-6.68-1-1-2-1.91-2.93-2.88a4.25,4.25,0,0,0-2.52-1.55h0a2.25,2.25,0,0,0-1.55.84c-1.15,1.21-1,2.23.75,3.9l1.63,1.59c2.12,2.05,4.31,4.18,6.29,6.43a7.34,7.34,0,0,1,1.82,4.42c.09,11.4.09,23,.08,34.19v11.1c0,3.69.41,4.12,4,4.13,2.56,0,5.11,0,7.71,0ZM204.7,194l-1.84,0-.14-.23a10.33,10.33,0,0,0-.71-1,4.26,4.26,0,0,1-1.26-2.63,4,4,0,0,1,1.57-2.35,2.06,2.06,0,0,1,1.49-.59,4.44,4.44,0,0,1,3.13,3c.12.89-.62,1.76-1.33,2.6-.27.33-.56.66-.77,1Zm-1.29-1h.78c.21-.28.44-.56.67-.83.55-.65,1.17-1.38,1.11-1.84a3.54,3.54,0,0,0-2.32-2.18,1.7,1.7,0,0,0-.84.49,3.16,3.16,0,0,0-1.09,1.55c0,.55.53,1.27,1.07,2C203,192.48,203.22,192.76,203.41,193Zm-47.31.38-.22,0a4.39,4.39,0,0,1-2.95-3.2,2,2,0,0,1,.62-1.47,4,4,0,0,1,2.38-1.52,4.25,4.25,0,0,1,2.62,1.33c.33.27.65.52,1,.73l.23.14,0,1.83-.22.15c-.31.2-.65.48-1,.74A4.42,4.42,0,0,1,156.1,193.42Zm-.09-5.23h0a3.09,3.09,0,0,0-1.57,1,1.7,1.7,0,0,0-.51.84,3.51,3.51,0,0,0,2.13,2.36c.45.08,1.2-.53,1.86-1.06.28-.22.56-.46.85-.66v-.78c-.28-.2-.55-.42-.82-.63A4,4,0,0,0,156,188.19Z" transform="translate(-121.78 -105.4)"/><path class="cls-1" d="M178.49,143h0a4,4,0,0,1-2.89-1.47c-2-2.09-4.12-4.2-6.14-6.24l-1.34-1.36c-1.63-1.64-1.72-3.37-.26-4.87a3.12,3.12,0,0,1,2.24-1.08h0a3.73,3.73,0,0,1,2.63,1.32c1.34,1.37,2.64,2.75,4.15,4.35l1.81,1.92,3.11-3.26,7.84-8.24a4.59,4.59,0,0,1,3-1.71,3.18,3.18,0,0,1,2.27,1.06,3.13,3.13,0,0,1,1.07,2.22,4.65,4.65,0,0,1-1.69,3.06l-1.87,1.87c-3.56,3.55-7.24,7.21-10.82,10.84A4.44,4.44,0,0,1,178.49,143Zm-8.4-14h0a2.21,2.21,0,0,0-1.54.78c-.68.7-1.4,1.83.25,3.5l1.34,1.36c2,2,4.11,4.15,6.15,6.25a3.17,3.17,0,0,0,2.2,1.17h0a3.49,3.49,0,0,0,2.4-1.3c3.59-3.63,7.27-7.3,10.83-10.84l1.87-1.87a3.73,3.73,0,0,0,1.4-2.37,2.77,2.77,0,0,0-2.34-2.3,3.54,3.54,0,0,0-2.3,1.4c-2.55,2.7-5.12,5.38-7.85,8.25l-3.82,4-.36-.38-2.17-2.3c-1.5-1.6-2.79-3-4.13-4.34A2.88,2.88,0,0,0,170.09,128.91Z" transform="translate(-121.78 -105.4)"/></svg>