<svg id="Layer_1" data-name="Layer 1" xmlns="http://www.w3.org/2000/svg" viewBox="0 0 124.03 80.43"><defs><style>.cls-1{fill:#38ffff;}</style></defs><path class="cls-1" d="M143.16,192.6h-25a7.37,7.37,0,0,1-5.51-2.41,7,7,0,0,1-1.71-5.55,23.39,23.39,0,0,1,1.17-4.61,30.19,30.19,0,0,1,6.84-11.54,23.62,23.62,0,0,1,5.12-4,1,1,0,0,1,1.08,0,15.21,15.21,0,0,0,17,0,1.07,1.07,0,0,1,1.21,0,25.28,25.28,0,0,1,8.7,8.69,33.63,33.63,0,0,1,4.28,10.7,7.17,7.17,0,0,1-7,8.73Zm-9.5-1h15.65a6.2,6.2,0,0,0,6.08-7.54,32.72,32.72,0,0,0-4.16-10.39,24.37,24.37,0,0,0-8.37-8.37.19.19,0,0,0-.09,0l-.11.05c-6,3.67-12.08,3.65-18.07-.05h0l-.06,0a22.47,22.47,0,0,0-4.9,3.87A29.13,29.13,0,0,0,113,180.34a22.37,22.37,0,0,0-1.13,4.42,6.05,6.05,0,0,0,1.47,4.78,6.39,6.39,0,0,0,4.78,2.08h15.54Z" transform="translate(-110.85 -112.17)"/><path class="cls-1" d="M133.59,165.91a14.29,14.29,0,0,1-14.21-14.07,14.28,14.28,0,0,1,24.37-10.36,13.9,13.9,0,0,1,4.21,9.9,14.26,14.26,0,0,1-14.27,14.53h-.1Zm0-27.62h-.11a13.39,13.39,0,0,0-13.15,13.55,13.34,13.34,0,0,0,13.33,13.09h0A13.3,13.3,0,0,0,147,151.39a13,13,0,0,0-3.92-9.22A13.39,13.39,0,0,0,133.61,138.29Z" transform="translate(-110.85 -112.17)"/><path class="cls-1" d="M221.52,192.6h-25a7.35,7.35,0,0,1-5.5-2.41,7,7,0,0,1-1.72-5.55,23.4,23.4,0,0,1,1.18-4.61,30.22,30.22,0,0,1,6.83-11.54,23.44,23.44,0,0,1,5.13-4,.93.93,0,0,1,1.07,0,15.23,15.23,0,0,0,17.05,0,1.05,1.05,0,0,1,1.2,0,25.2,25.2,0,0,1,8.7,8.69,33.42,33.42,0,0,1,4.29,10.7,7.17,7.17,0,0,1-7,8.73Zm-9.5-1h15.66a6.22,6.22,0,0,0,4.85-2.32,6.16,6.16,0,0,0,1.22-5.22,32.26,32.26,0,0,0-4.16-10.39,24.43,24.43,0,0,0-8.36-8.37c-.07,0-.09,0-.1,0l-.1.05c-6,3.67-12.09,3.65-18.07-.05h0l-.05,0a22.52,22.52,0,0,0-4.91,3.87,29,29,0,0,0-6.61,11.17,23.1,23.1,0,0,0-1.14,4.42,6.06,6.06,0,0,0,1.48,4.78,6.38,6.38,0,0,0,4.77,2.08H212Z" transform="translate(-110.85 -112.17)"/><path class="cls-1" d="M212,165.91a14.31,14.31,0,0,1-14.21-14.07,14.28,14.28,0,0,1,24.37-10.36,13.91,13.91,0,0,1,4.22,9.9,14.27,14.27,0,0,1-14.27,14.53H212Zm0-27.62h-.11a13.38,13.38,0,0,0-13.15,13.55,13,13,0,0,0,4,9.26,13.17,13.17,0,0,0,9.26,3.83h.1a13.3,13.3,0,0,0,13.3-13.54,13,13,0,0,0-3.92-9.22A13.39,13.39,0,0,0,212,138.29Z" transform="translate(-110.85 -112.17)"/><path class="cls-1" d="M187.26,192.58H150.65a10.52,10.52,0,0,1-7.88-3.45,10,10,0,0,1-2.46-7.93,34.69,34.69,0,0,1,1.71-6.71A43.89,43.89,0,0,1,152,157.7a34.62,34.62,0,0,1,7.44-5.87,1.19,1.19,0,0,1,1.35,0c8.34,5.16,16.8,5.18,25.17.07a1.34,1.34,0,0,1,1.53,0A36.88,36.88,0,0,1,200.1,164.5a48.83,48.83,0,0,1,6.24,15.58,10.26,10.26,0,0,1-10.06,12.49Zm-13.88-1h22.9a9.28,9.28,0,0,0,9.11-11.3A48.15,48.15,0,0,0,199.27,165,35.87,35.87,0,0,0,187,152.71c-.21-.12-.28-.13-.52,0-8.71,5.32-17.52,5.29-26.2-.08-.13-.08-.14-.09-.33,0a33.28,33.28,0,0,0-7.23,5.7A42.91,42.91,0,0,0,143,174.8a32.85,32.85,0,0,0-1.66,6.51,9.06,9.06,0,0,0,2.21,7.17,9.56,9.56,0,0,0,7.15,3.12h22.73Z" transform="translate(-110.85 -112.17)"/><path class="cls-1" d="M173.28,153.54a20.69,20.69,0,0,1-20.56-20.35,20.76,20.76,0,0,1,20.43-21h.16a20.77,20.77,0,0,1,14.68,6,20.23,20.23,0,0,1,6.09,14.33,20.65,20.65,0,0,1-20.65,21h-.15Zm0-40.39h-.16a19.78,19.78,0,0,0-19.45,20,19.72,19.72,0,0,0,19.72,19.37h0a19.67,19.67,0,0,0,19.68-20,19.21,19.21,0,0,0-5.8-13.64A19.78,19.78,0,0,0,173.31,113.15Z" transform="translate(-110.85 -112.17)"/></svg>