<svg id="Layer_1" data-name="Layer 1" xmlns="http://www.w3.org/2000/svg" viewBox="0 0 68.82 80.82"><defs><style>.cls-1{fill:#38ffff;}</style></defs><path class="cls-1" d="M197,192.79H138.45V112H197ZM140.22,191h55V113.75h-55Z" transform="translate(-138.45 -111.97)"/><path class="cls-1" d="M169.62,129.18a48.73,48.73,0,0,1-5.9-.33l.09-.73a75.07,75.07,0,0,0,13.74,0,75.6,75.6,0,0,1,13.87,0l-.09.73a76,76,0,0,0-13.74,0C175,129,172.31,129.18,169.62,129.18Z" transform="translate(-138.45 -111.97)"/><path class="cls-1" d="M154.75,139.26c-3.17,0-6.36-.1-9.53-.39l.07-.73a164.15,164.15,0,0,0,22.4,0,165.79,165.79,0,0,1,22.51,0l-.07.73a164.31,164.31,0,0,0-22.41,0C163.46,139.06,159.12,139.26,154.75,139.26Z" transform="translate(-138.45 -111.97)"/><path class="cls-1" d="M154.75,147.15c-3.17,0-6.36-.1-9.53-.39l.07-.74a162.57,162.57,0,0,0,22.4,0,167.41,167.41,0,0,1,22.51,0l-.07.74a164.31,164.31,0,0,0-22.41,0C163.46,147,159.12,147.15,154.75,147.15Z" transform="translate(-138.45 -111.97)"/><path class="cls-1" d="M154.75,155c-3.17,0-6.36-.11-9.53-.39l.07-.74a162.57,162.57,0,0,0,22.4,0,167.41,167.41,0,0,1,22.51,0l-.07.74a164.31,164.31,0,0,0-22.41,0C163.46,154.84,159.12,155,154.75,155Z" transform="translate(-138.45 -111.97)"/><path class="cls-1" d="M154.75,162.93c-3.17,0-6.36-.11-9.53-.39l.07-.74a164.16,164.16,0,0,0,22.4,0,167.41,167.41,0,0,1,22.51,0l-.07.74a162.72,162.72,0,0,0-22.41,0C163.46,162.73,159.12,162.93,154.75,162.93Z" transform="translate(-138.45 -111.97)"/><path class="cls-1" d="M154.75,170.82c-3.17,0-6.36-.11-9.53-.4l.07-.73a164.16,164.16,0,0,0,22.4,0,167.41,167.41,0,0,1,22.51,0l-.07.73a164.3,164.3,0,0,0-22.41,0C163.46,170.62,159.12,170.82,154.75,170.82Z" transform="translate(-138.45 -111.97)"/><path class="cls-1" d="M154.75,178.71c-3.17,0-6.36-.11-9.53-.4l.07-.73a164.16,164.16,0,0,0,22.4,0,165.78,165.78,0,0,1,22.51,0l-.07.73a164.3,164.3,0,0,0-22.41,0C163.46,178.51,159.12,178.71,154.75,178.71Z" transform="translate(-138.45 -111.97)"/><path class="cls-1" d="M154.75,186.6c-3.17,0-6.36-.11-9.53-.4l.07-.73a164.16,164.16,0,0,0,22.4,0,165.78,165.78,0,0,1,22.51,0l-.07.73a165.93,165.93,0,0,0-22.41,0C163.46,186.4,159.12,186.6,154.75,186.6Z" transform="translate(-138.45 -111.97)"/><path class="cls-1" d="M206.61,148.22a1.65,1.65,0,0,1-2.31-.33l-6.41-8.52-1.6-2.14,1.34-1,.18-.14,1.12-.83,1.61,2.14,6.4,8.52A1.65,1.65,0,0,1,206.61,148.22Z" transform="translate(-138.45 -111.97)"/><path class="cls-1" d="M198.12,136.71l.18-.14-.1.09Z" transform="translate(-138.45 -111.97)"/><path class="cls-1" d="M200.52,120.3a11.68,11.68,0,1,0-2.4,16.41l.18-.14A11.67,11.67,0,0,0,200.52,120.3Zm-4,14.12A8.89,8.89,0,1,1,198.28,122,8.9,8.9,0,0,1,196.52,134.42Z" transform="translate(-138.45 -111.97)"/><path class="cls-1" d="M160,133.89H144.82V116.75H160Zm-14.69-.49h14.2V117.24h-14.2Z" transform="translate(-138.45 -111.97)"/></svg>