<svg id="Layer_1" data-name="Layer 1" xmlns="http://www.w3.org/2000/svg" viewBox="0 0 100.42 72.1"><defs><style>.cls-1{fill:#38ffff;}</style></defs><path class="cls-1" d="M171.76,177.43l-1-.45c-10-4.34-20.81-5.1-33-2.31l-.9.2V165.2q0-22.29,0-44.58a2,2,0,0,1,1.12-1.92,18.18,18.18,0,0,1,7.22-2.1c8.85-.94,17.19,1.1,25.49,6.25A2.32,2.32,0,0,1,171.8,125q0,20.83,0,41.68Zm-20.29-5.87a49.21,49.21,0,0,1,18.82,3.64v-8.52q0-20.84,0-41.68a.86.86,0,0,0-.5-.9c-8-5-16.05-6.94-24.55-6a16.79,16.79,0,0,0-6.66,1.92.58.58,0,0,0-.37.64q0,22.29,0,44.58V173A62.54,62.54,0,0,1,151.47,171.56Z" transform="translate(-122.65 -116.33)"/><path class="cls-1" d="M174.06,177.39l-.07-1.34c0-.2,0-.38,0-.55v-9.72q0-20.46,0-40.92a2.11,2.11,0,0,1,1-1.92A41,41,0,0,1,190,117a31.56,31.56,0,0,1,14.4.34,17.11,17.11,0,0,1,3.09,1.26l.53.26a1.78,1.78,0,0,1,.91,1.47c0,17.13,0,34.54,0,51.38v1.94a2.64,2.64,0,0,1,0,.28l-.09.92-.82-.19c-12.22-2.77-23-2-33,2.3Zm22.55-59.59a33.28,33.28,0,0,0-6.35.64,39.59,39.59,0,0,0-14.47,5.73.68.68,0,0,0-.4.69q0,20.46,0,40.92v9.42c9.74-4,20.24-4.69,32-2.16v-1.33c0-16.84,0-34.25,0-51.38a.79.79,0,0,0-.1-.16l-.51-.25a16.69,16.69,0,0,0-2.83-1.16A28.37,28.37,0,0,0,196.61,117.8Zm10.76,2.38Z" transform="translate(-122.65 -116.33)"/><path class="cls-1" d="M126,188.43c-2.28,0-3.21-.88-3.32-3.15,0-.26,0-.53,0-.79V127.56a4,4,0,0,1,3.37-4.07,4.42,4.42,0,0,1,4.64,2.25,4.32,4.32,0,0,1,.32,1.81q0,23.49,0,47V181l.86-.1c1.2-.15,2.36-.3,3.53-.43a100.73,100.73,0,0,1,19-.69,77.14,77.14,0,0,1,15.11,2.8,3,3,0,0,1,2.22,3.45,2.8,2.8,0,0,1-3,2.42Zm.82-63.56a2.12,2.12,0,0,0-.44,0,2.52,2.52,0,0,0-2.24,2.64v56.93c0,.24,0,.48,0,.72.07,1.47.37,1.75,1.85,1.75h42.77a1.36,1.36,0,0,0,1.53-1.14,1.56,1.56,0,0,0-1.17-1.84,74.78,74.78,0,0,0-14.81-2.76,98.85,98.85,0,0,0-18.76.69c-1.16.13-2.32.28-3.51.43l-2.51.31v-8.12q0-23.47,0-47a2.94,2.94,0,0,0-.19-1.2A3,3,0,0,0,126.8,124.87Z" transform="translate(-122.65 -116.33)"/><path class="cls-1" d="M220.05,188.43H176.94a2.78,2.78,0,0,1-2.95-2.36,3,3,0,0,1,2.11-3.45,72.67,72.67,0,0,1,17.74-3,97,97,0,0,1,14,.58l5.25.59,1.64.18V127.6a4,4,0,0,1,3.33-4.1,4.43,4.43,0,0,1,4.66,2.18,3.38,3.38,0,0,1,.34,1.48q0,28.88,0,57.76a6.76,6.76,0,0,1-.13,1.25,2.51,2.51,0,0,1-2.56,2.26ZM196.84,181c-1,0-2,0-2.94.05A70.77,70.77,0,0,0,176.51,184a1.53,1.53,0,0,0-1.07,1.82,1.35,1.35,0,0,0,1.5,1.11h43.37a1.06,1.06,0,0,0,1.18-1,5.37,5.37,0,0,0,.11-1q0-28.87,0-57.76a2.24,2.24,0,0,0-.19-.82,3,3,0,0,0-3-1.41,2.51,2.51,0,0,0-2.21,2.67v55l-3.28-.36c-1.77-.21-3.5-.4-5.23-.58A101.84,101.84,0,0,0,196.84,181Z" transform="translate(-122.65 -116.33)"/></svg>