<svg xmlns="http://www.w3.org/2000/svg" viewBox="0 0 112.65 83.02"><defs><style>.cls-1{isolation:isolate;}.cls-2{fill:none;stroke:#38ffff;stroke-miterlimit:10;}.cls-3{fill:#38ffff;}.cls-4{fill:#00cfff;}.cls-5{fill:#00aeef;}.cls-6{mix-blend-mode:overlay;}.cls-7{fill:#ebfcff;}</style></defs><g class="cls-1"><g id="Layer_1" data-name="Layer 1"><g id="Model"><path class="cls-2" d="M131.65,153.17" transform="translate(-116.54 -110.87)"/><path class="cls-3" d="M138.41,156.73a2.26,2.26,0,0,1-1.32-.4c-2-1.42-1.83-6.11-1.83-6.31l.49,0c0,.05-.19,4.62,1.62,5.89a2.28,2.28,0,0,0,2.25,0l.19.45A3.63,3.63,0,0,1,138.41,156.73Z" transform="translate(-116.54 -110.87)"/><path class="cls-3" d="M139.44,154.84l-.49-.08a1.39,1.39,0,0,1,.68-.9c.84-.51,2.22-.43,4.12.22.53,0,1.8-.25,2.05-.86.14-.32,0-.76-.49-1.29l.37-.32q.9,1,.57,1.8c-.42,1-2.31,1.15-2.52,1.16h-.1c-2.19-.76-3.24-.58-3.73-.29A.89.89,0,0,0,139.44,154.84Z" transform="translate(-116.54 -110.87)"/><path class="cls-3" d="M125,128.21c0-.08-4.43-8.19,3.68-13.21,4.41-2.73,5.35-2.69,5.68-2.29.56.67-1.07,2.61-1.79,3.42l-.37-.33c1.2-1.33,1.95-2.58,1.79-2.77,0,0-.46-.46-5.06,2.39-7.7,4.76-3.68,12.23-3.5,12.55Z" transform="translate(-116.54 -110.87)"/><path class="cls-3" d="M172.44,128.47l-.47-.14c0-.09,2.5-8.62-12.08-14-16-5.89-23.6-1.2-23.67-1.15l-.27-.42c.31-.2,7.8-4.88,24.11,1.11C175.1,119.42,172.47,128.38,172.44,128.47Z" transform="translate(-116.54 -110.87)"/><path class="cls-3" d="M130.35,154.59l-.36-.34a25.71,25.71,0,0,1,7.2-5.74c4.77-2.75,11-4.14,19.09-4.26a3.77,3.77,0,0,0,2.91-1.61,4,4,0,0,0-.06-3.85l.45-.2c.94,2.12.53,3.51,0,4.31a4.23,4.23,0,0,1-3.32,1.84c-8,.12-14.15,1.49-18.85,4.19A25.32,25.32,0,0,0,130.35,154.59Z" transform="translate(-116.54 -110.87)"/><path class="cls-3" d="M139.49,164l-.48-.1a6.41,6.41,0,0,1,3.53-3.92c3-1.53,9.12-1.73,9.37-1.74l0,.49c-.06,0-6.25.21-9.17,1.69A6,6,0,0,0,139.49,164Z" transform="translate(-116.54 -110.87)"/><path class="cls-3" d="M142.37,165a2.93,2.93,0,0,1-1.21-.24,1.16,1.16,0,0,1-.78-1.05c.06-1.12,6.71-3.57,9.56-4.57l.16.47c-4.32,1.51-9.08,3.52-9.23,4.13,0,.21.18.42.49.57.78.37,2.71.43,5-1.66l.33.36A6.74,6.74,0,0,1,142.37,165Z" transform="translate(-116.54 -110.87)"/><rect class="cls-3" x="161.16" y="123.72" width="0.49" height="10.34" transform="translate(-133.55 122.09) rotate(-68.86)"/><rect class="cls-3" x="161.5" y="137.93" width="0.49" height="1.76" transform="translate(-144.33 125.42) rotate(-67.85)"/><rect class="cls-3" x="127.62" y="153.24" width="0.49" height="5.71" transform="translate(-180.37 108.19) rotate(-68.86)"/><path class="cls-3" d="M172.25,155.64c-4.28,0-8.16-5.34-8.76-12.23a17.56,17.56,0,0,1,1.53-9.29c1.31-2.6,3.24-4.14,5.42-4.33s4.34,1,6.09,3.32a17.74,17.74,0,0,1,3.13,8.89h0a17.56,17.56,0,0,1-1.54,9.29c-1.31,2.6-3.24,4.14-5.42,4.33A3.39,3.39,0,0,1,172.25,155.64Zm-1.35-25.38-.42,0c-2,.17-3.79,1.62-5,4.06a17.1,17.1,0,0,0-1.49,9c.6,6.85,4.49,12.13,8.69,11.77,2-.18,3.79-1.62,5-4.07a18.41,18.41,0,0,0-1.55-17.66C174.61,131.36,172.76,130.26,170.9,130.26Z" transform="translate(-116.54 -110.87)"/><path class="cls-3" d="M173.92,151.8a5.44,5.44,0,0,1-4.23-2.51,14.14,14.14,0,0,1-1.19-13.58c1-2,2.43-3.1,4.08-3.25s3.27.74,4.58,2.5a13.05,13.05,0,0,1,2.33,6.63c.47,5.33-1.87,9.9-5.22,10.19Zm-1-18.86h-.3c-1.47.13-2.77,1.19-3.68,3A13.65,13.65,0,0,0,170.08,149c1.21,1.62,2.68,2.43,4.15,2.3,3.08-.27,5.22-4.6,4.78-9.66a12.65,12.65,0,0,0-2.25-6.38A5,5,0,0,0,172.92,132.94Z" transform="translate(-116.54 -110.87)"/><path class="cls-3" d="M148.21,175.73c-4.43,0-6.77-2.63-8.48-5.42-.51-.83-1.08-1.67-1.69-2.56a55.63,55.63,0,0,1-6.28-11.44l.46-.18a54.69,54.69,0,0,0,6.23,11.34c.61.9,1.18,1.75,1.69,2.58,2.18,3.56,5.45,6.84,13.1,4.24A23.42,23.42,0,0,0,169,155.69l.49.08a23.94,23.94,0,0,1-16.1,19A16.48,16.48,0,0,1,148.21,175.73Z" transform="translate(-116.54 -110.87)"/><path class="cls-3" d="M226.79,192.33c-5.74-12-28-14.18-28.25-14.2l-.07,0c-.67-.28-16.56-6.78-20.52-9.2s-5.37-11.48-5.43-11.86L173,157c0,.09,1.35,9.17,5.19,11.52s19.59,8.8,20.42,9.14c1,.11,22.87,2.43,28.62,14.48Z" transform="translate(-116.54 -110.87)"/><path class="cls-3" d="M129.23,193.49l-.22-.43A33.57,33.57,0,0,0,144.22,177l.46.17A34.06,34.06,0,0,1,129.23,193.49Z" transform="translate(-116.54 -110.87)"/><path class="cls-3" d="M166.52,189.48c-3.09-7.09,3.62-30.56,3.91-31.55l.47.13c-.07.24-7,24.3-3.94,31.22Z" transform="translate(-116.54 -110.87)"/><path class="cls-3" d="M163.39,190.27a50.25,50.25,0,0,0-16.51-12.84l.2-.45a50.84,50.84,0,0,1,16.69,13Z" transform="translate(-116.54 -110.87)"/><path class="cls-3" d="M169.62,191.42l-.47-.12c.06-.24,1.62-6,13.11-5.63,11.14.34,15.25-5.08,15.29-5.14l.39.29c-.17.24-4.29,5.68-15.7,5.34C171.17,185.82,169.64,191.37,169.62,191.42Z" transform="translate(-116.54 -110.87)"/><path class="cls-3" d="M135.24,193.8H135l0-.49c.06,0,5.81.22,13.93-3.13,8.33-3.45,13.71,1.81,13.76,1.86l-.34.35c-.05-.06-5.22-5.08-13.24-1.76A38,38,0,0,1,135.24,193.8Z" transform="translate(-116.54 -110.87)"/><path class="cls-4" d="M155.5,126.84l2.78,7c1.28,3.23-1,6.7-4.18,6.49a35.36,35.36,0,0,0-16.73,3.22,31,31,0,0,0-12,9.29c-1.51,2-4.44,1.19-5.51-1.49l-2.7-7.08a4.71,4.71,0,0,1,0-3.54c2.23-5.17,7.38-9.12,14.07-12.77,7.15-3.89,14.95-5.18,21.27-3.82A4.3,4.3,0,0,1,155.5,126.84Z" transform="translate(-116.54 -110.87)"/><path class="cls-5" d="M123.19,154.2a2.69,2.69,0,0,1-.4,0,4.18,4.18,0,0,1-3.18-2.74l-2.7-7.08a5,5,0,0,1,0-3.73c2-4.66,6.39-8.64,14.18-12.88,7.08-3.86,14.9-5.26,21.44-3.85a4.56,4.56,0,0,1,3.22,2.86l2.78,7a5.17,5.17,0,0,1-.59,5,4.35,4.35,0,0,1-3.84,1.85,35.38,35.38,0,0,0-16.61,3.19A30.59,30.59,0,0,0,125.54,153,2.9,2.9,0,0,1,123.19,154.2Zm24.1-30.36a33.87,33.87,0,0,0-16,4.33c-7.69,4.19-12,8.09-14,12.65a4.46,4.46,0,0,0,0,3.35l2.7,7.08a3.73,3.73,0,0,0,2.79,2.44,2.4,2.4,0,0,0,2.3-1,31,31,0,0,1,12.12-9.36,35.84,35.84,0,0,1,16.84-3.24,3.85,3.85,0,0,0,3.41-1.65,4.68,4.68,0,0,0,.53-4.51l-2.77-7a4.08,4.08,0,0,0-2.87-2.56A23.84,23.84,0,0,0,147.29,123.84Z" transform="translate(-116.54 -110.87)"/><path class="cls-4" d="M175.2,141.76c.29,3.34-1.15,6.19-3.21,6.38s-4-2.38-4.27-5.72,1.14-6.19,3.21-6.37S174.91,138.42,175.2,141.76Z" transform="translate(-116.54 -110.87)"/><path class="cls-4" d="M171.78,148.39c-2.1,0-4-2.6-4.31-5.95a8.51,8.51,0,0,1,.75-4.5,3.47,3.47,0,0,1,2.69-2.14c2.21-.19,4.23,2.47,4.53,5.94h0a8.51,8.51,0,0,1-.74,4.5,3.47,3.47,0,0,1-2.69,2.14Zm-.64-12.11H171a3,3,0,0,0-2.29,1.87,8,8,0,0,0-.7,4.24c.28,3.2,2.09,5.65,4,5.49a3,3,0,0,0,2.29-1.87,8,8,0,0,0,.69-4.24h0C174.68,138.69,173,136.28,171.14,136.28Z" transform="translate(-116.54 -110.87)"/><path class="cls-2" d="M133.6,153.26" transform="translate(-116.54 -110.87)"/><path class="cls-3" d="M140.36,156.83a2.22,2.22,0,0,1-1.31-.41c-2-1.42-1.84-6.11-1.83-6.31l.48,0c0,.05-.19,4.62,1.63,5.89a2.23,2.23,0,0,0,2.24,0l.19.45A3.66,3.66,0,0,1,140.36,156.83Z" transform="translate(-116.54 -110.87)"/><path class="cls-3" d="M141.39,154.93l-.49-.08a1.4,1.4,0,0,1,.68-.89c.84-.51,2.22-.44,4.12.21.53,0,1.8-.25,2.05-.86.14-.32,0-.75-.49-1.29l.37-.32c.6.69.79,1.29.58,1.8-.43,1-2.32,1.15-2.53,1.16h-.05l0,0c-2.19-.76-3.24-.57-3.73-.29A.91.91,0,0,0,141.39,154.93Z" transform="translate(-116.54 -110.87)"/><path class="cls-3" d="M127,128.3c0-.08-4.43-8.19,3.68-13.21,4.41-2.73,5.35-2.68,5.69-2.28.55.66-1.08,2.6-1.8,3.41l-.37-.33c1.2-1.33,1.95-2.58,1.79-2.77,0,0-.46-.45-5.06,2.39-7.71,4.77-3.68,12.24-3.5,12.55Z" transform="translate(-116.54 -110.87)"/><path class="cls-3" d="M174.39,128.57l-.46-.15c0-.09,2.49-8.62-12.08-14-16.06-5.89-23.61-1.2-23.68-1.15l-.27-.41c.31-.2,7.8-4.88,24.11,1.1C177.05,119.51,174.42,128.48,174.39,128.57Z" transform="translate(-116.54 -110.87)"/><path class="cls-3" d="M132.3,154.68l-.36-.34a25.71,25.71,0,0,1,7.2-5.74c4.77-2.75,11-4.14,19.09-4.26a3.77,3.77,0,0,0,2.91-1.61,4,4,0,0,0-.06-3.85l.45-.2c.94,2.12.53,3.52,0,4.32a4.25,4.25,0,0,1-3.32,1.83c-8,.12-14.15,1.49-18.85,4.19A25.17,25.17,0,0,0,132.3,154.68Z" transform="translate(-116.54 -110.87)"/><path class="cls-3" d="M141.44,164.13,141,164a6.41,6.41,0,0,1,3.53-3.92c3-1.52,9.12-1.73,9.37-1.74l0,.49c-.06,0-6.25.21-9.17,1.69A6,6,0,0,0,141.44,164.13Z" transform="translate(-116.54 -110.87)"/><path class="cls-3" d="M144.32,165.13a2.78,2.78,0,0,1-1.21-.24,1.16,1.16,0,0,1-.78-1c.06-1.12,6.71-3.56,9.56-4.56l.16.46c-4.32,1.51-9.07,3.52-9.23,4.13,0,.21.18.43.5.58.77.36,2.7.42,5-1.67l.33.36A6.72,6.72,0,0,1,144.32,165.13Z" transform="translate(-116.54 -110.87)"/><rect class="cls-3" x="163.11" y="123.81" width="0.49" height="10.34" transform="translate(-132.39 123.96) rotate(-68.86)"/><rect class="cls-3" x="163.45" y="138.02" width="0.49" height="1.76" transform="translate(-143.2 127.29) rotate(-67.85)"/><rect class="cls-3" x="129.57" y="153.33" width="0.49" height="5.71" transform="translate(-179.21 110.07) rotate(-68.86)"/><path class="cls-3" d="M174.2,155.74c-4.28,0-8.16-5.35-8.76-12.23a17.61,17.61,0,0,1,1.53-9.3c1.31-2.6,3.24-4.14,5.42-4.33,4.47-.39,8.59,5.09,9.22,12.21a17.56,17.56,0,0,1-1.54,9.29c-1.31,2.61-3.24,4.14-5.42,4.34Zm-1.36-25.39-.41,0c-2,.18-3.79,1.62-5,4.06a17,17,0,0,0-1.48,9c.59,6.86,4.48,12.13,8.68,11.77,2-.18,3.79-1.62,5-4.07a17.1,17.1,0,0,0,1.49-9C180.54,135.51,176.87,130.35,172.84,130.35Z" transform="translate(-116.54 -110.87)"/><path class="cls-3" d="M175.87,151.89a5.44,5.44,0,0,1-4.23-2.51,13.09,13.09,0,0,1-2.33-6.63c-.47-5.33,1.87-9.9,5.22-10.2,1.65-.14,3.27.75,4.58,2.5a13.09,13.09,0,0,1,2.33,6.63c.47,5.33-1.87,9.9-5.22,10.19Zm-1-18.86h-.3c-3.08.27-5.22,4.61-4.78,9.66a12.78,12.78,0,0,0,2.24,6.39c1.21,1.61,2.68,2.43,4.15,2.3,3.08-.27,5.22-4.61,4.78-9.66a12.66,12.66,0,0,0-2.25-6.39A5,5,0,0,0,174.87,133Z" transform="translate(-116.54 -110.87)"/><path class="cls-3" d="M150.16,175.82c-4.43,0-6.77-2.63-8.48-5.42-.51-.82-1.08-1.67-1.69-2.56a55.21,55.21,0,0,1-6.27-11.44l.45-.18a55.08,55.08,0,0,0,6.23,11.35c.61.89,1.18,1.74,1.69,2.57,2.19,3.56,5.45,6.84,13.1,4.25A23.47,23.47,0,0,0,171,155.78l.48.08a23.92,23.92,0,0,1-16.1,19A16.2,16.2,0,0,1,150.16,175.82Z" transform="translate(-116.54 -110.87)"/><path class="cls-3" d="M228.74,192.42c-5.74-12-28-14.18-28.25-14.2l-.07,0c-.67-.27-16.56-6.77-20.52-9.19s-5.37-11.48-5.43-11.87l.49-.06c0,.09,1.35,9.16,5.2,11.51s19.58,8.8,20.41,9.14c1.05.11,22.87,2.43,28.62,14.48Z" transform="translate(-116.54 -110.87)"/><path class="cls-3" d="M131.18,193.58l-.22-.43a33.49,33.49,0,0,0,15.21-16.06l.46.18A34.06,34.06,0,0,1,131.18,193.58Z" transform="translate(-116.54 -110.87)"/><path class="cls-3" d="M168.47,189.57c-3.09-7.08,3.62-30.56,3.91-31.55l.47.13c-.07.25-6.95,24.3-3.93,31.23Z" transform="translate(-116.54 -110.87)"/><path class="cls-3" d="M165.34,190.36a50.37,50.37,0,0,0-16.5-12.84l.19-.44a50.89,50.89,0,0,1,16.69,13Z" transform="translate(-116.54 -110.87)"/><path class="cls-3" d="M171.57,191.52l-.47-.12c.06-.25,1.61-6,13.11-5.64,11.14.33,15.25-5.08,15.29-5.13l.39.29c-.16.23-4.28,5.67-15.7,5.33C173.11,185.91,171.59,191.46,171.57,191.52Z" transform="translate(-116.54 -110.87)"/><path class="cls-3" d="M137.19,193.89h-.28l0-.49c.06,0,5.81.23,13.93-3.13,8.33-3.45,13.71,1.81,13.76,1.86l-.34.35c-.05,0-5.22-5.08-13.24-1.76A38,38,0,0,1,137.19,193.89Z" transform="translate(-116.54 -110.87)"/><path class="cls-4" d="M157.46,126.93l2.77,7c1.28,3.22-1,6.7-4.18,6.49a35.35,35.35,0,0,0-16.73,3.21,31,31,0,0,0-12,9.29c-1.51,2-4.44,1.19-5.5-1.49l-2.7-7.08a4.67,4.67,0,0,1,0-3.54c2.23-5.17,7.38-9.12,14.07-12.76,7.15-3.9,15-5.19,21.27-3.83A4.33,4.33,0,0,1,157.46,126.93Z" transform="translate(-116.54 -110.87)"/><path class="cls-5" d="M125.14,154.29a2.69,2.69,0,0,1-.4,0,4.18,4.18,0,0,1-3.18-2.74l-2.7-7.08a4.94,4.94,0,0,1,0-3.72c2-4.67,6.39-8.65,14.18-12.89,7.08-3.86,14.9-5.26,21.44-3.85a4.56,4.56,0,0,1,3.22,2.86l2.78,7a5.16,5.16,0,0,1-.59,5,4.33,4.33,0,0,1-3.84,1.85,35.51,35.51,0,0,0-16.61,3.19,30.59,30.59,0,0,0-11.93,9.22A2.9,2.9,0,0,1,125.14,154.29Zm24.1-30.36a34,34,0,0,0-16,4.33c-7.69,4.19-12,8.09-14,12.65a4.46,4.46,0,0,0,0,3.35l2.7,7.08a3.73,3.73,0,0,0,2.79,2.44,2.41,2.41,0,0,0,2.3-1,31,31,0,0,1,12.12-9.37,35.82,35.82,0,0,1,16.84-3.24,3.85,3.85,0,0,0,3.41-1.65A4.66,4.66,0,0,0,160,134l-2.77-7a4.08,4.08,0,0,0-2.87-2.56A24.49,24.49,0,0,0,149.24,123.93Z" transform="translate(-116.54 -110.87)"/><path class="cls-4" d="M177.15,141.85c.29,3.34-1.15,6.2-3.21,6.38s-4-2.38-4.27-5.72,1.14-6.19,3.21-6.37S176.86,138.52,177.15,141.85Z" transform="translate(-116.54 -110.87)"/><path class="cls-5" d="M173.74,148.48c-2.11,0-4-2.6-4.32-5.95s1.24-6.44,3.44-6.64,4.23,2.48,4.53,5.94-1.23,6.45-3.43,6.64Zm-.65-12.11h-.19c-1.93.17-3.27,2.91-3,6.11s2.09,5.66,4,5.49,3.26-2.91,3-6.1S174.94,136.37,173.09,136.37Z" transform="translate(-116.54 -110.87)"/><path class="cls-3" d="M161.84,150.47l0-.39a40.38,40.38,0,0,0-1.36-6.17l.47-.14a43.63,43.63,0,0,1,1.34,5.88l1.48-.89.25.42Z" transform="translate(-116.54 -110.87)"/><path class="cls-3" d="M157.68,171.73l-.33-.36c12-11,7.49-19.7,7.44-19.78l.44-.24C165.27,151.44,169.94,160.48,157.68,171.73Z" transform="translate(-116.54 -110.87)"/><path class="cls-3" d="M140,151.68l-.22-.44c.09-.05,9.39-4.77,18.89-4.22l0,.49C149.26,147,140.09,151.63,140,151.68Z" transform="translate(-116.54 -110.87)"/><path class="cls-3" d="M166.58,127.54l-.48-.11c2.15-9.52-15-14.17-15.17-14.21l.12-.48C151.78,112.94,168.83,117.56,166.58,127.54Z" transform="translate(-116.54 -110.87)"/><path class="cls-3" d="M138.61,123.38c-.12,0-2.73-.93-3.1-3.08-.29-1.71,1-3.67,3.72-5.81l.3.38c-2.61,2-3.79,3.83-3.54,5.35.32,1.85,2.75,2.69,2.77,2.7Z" transform="translate(-116.54 -110.87)"/><rect class="cls-3" x="151.62" y="123.1" width="0.49" height="17.71" transform="translate(-153 -49.7) rotate(-20.39)"/><path class="cls-3" d="M129.27,120.44l-.46-.18c.13-.31,3.25-7.54,20.62-7.6v.49C132.44,113.21,129.3,120.37,129.27,120.44Z" transform="translate(-116.54 -110.87)"/><path class="cls-3" d="M137.28,155.52c-1.17-1.18-1.35-3.82-1.35-3.93l.48,0s.18,2.57,1.22,3.62Z" transform="translate(-116.54 -110.87)"/><path class="cls-3" d="M134.34,192.66l-.2-.44a28.34,28.34,0,0,0,11.05-10.62l.42.25A28.71,28.71,0,0,1,134.34,192.66Z" transform="translate(-116.54 -110.87)"/><path class="cls-3" d="M197.72,179.84A107.91,107.91,0,0,1,175,169.26l.27-.41a107.06,107.06,0,0,0,22.61,10.52Z" transform="translate(-116.54 -110.87)"/><path class="cls-3" d="M173.31,191.65l-.44-.22a9,9,0,0,1,8.75-4.33l-.05.49A8.49,8.49,0,0,0,173.31,191.65Z" transform="translate(-116.54 -110.87)"/><g class="cls-6"><path class="cls-7" d="M129.82,150a26.76,26.76,0,0,0-2.53,2.88,2.64,2.64,0,0,1-1.07.89L124.68,132c1.14-.85,2.38-1.66,3.7-2.46Z" transform="translate(-116.54 -110.87)"/></g><g class="cls-6"><path class="cls-7" d="M136.29,145.18a34.38,34.38,0,0,0-3.7,2.45L131.2,128a38.84,38.84,0,0,1,3.75-1.79Z" transform="translate(-116.54 -110.87)"/></g></g></g></g></svg>